<svg width="24" height="24" viewBox="0 0 24 24" fill="none" xmlns="http://www.w3.org/2000/svg">
<path d="M12 23C14.7614 23 17 20.7614 17 18C17 15.2386 14.7614 13 12 13C9.23858 13 7 15.2386 7 18C7 20.7614 9.23858 23 12 23Z" fill="#F9D7D7"/>
<path d="M12 20C13.1046 20 14 19.1046 14 18C14 16.8954 13.1046 16 12 16C10.8954 16 10 16.8954 10 18C10 19.1046 10.8954 20 12 20Z" fill="#222222"/>
<path d="M18 7.80347C18 13.6763 12 18 12 18C12 18 6 13.5029 6 7.80347C6 4.60116 8.68924 2 12 2C15.3108 2 18 4.60116 18 7.80347Z" fill="#FE5555"/>
<path d="M12 11C13.6569 11 15 9.65685 15 8C15 6.34315 13.6569 5 12 5C10.3431 5 9 6.34315 9 8C9 9.65685 10.3431 11 12 11Z" fill="white"/>
</svg>
