<svg width="24" height="24" viewBox="0 0 24 24" fill="none" xmlns="http://www.w3.org/2000/svg">
<path fill-rule="evenodd" clip-rule="evenodd" d="M19.8625 10.807H4.23848C3.87558 10.807 3.58105 10.5125 3.58105 10.1496C3.58105 9.78672 3.87558 9.49219 4.23848 9.49219H19.8625C20.2254 9.49219 20.5199 9.78672 20.5199 10.1496C20.5199 10.5125 20.2254 10.807 19.8625 10.807" fill="#464646"/>
<path fill-rule="evenodd" clip-rule="evenodd" d="M15.949 14.225C15.5861 14.225 15.2881 13.9305 15.2881 13.5676C15.2881 13.2047 15.5782 12.9102 15.9411 12.9102H15.949C16.3119 12.9102 16.6064 13.2047 16.6064 13.5676C16.6064 13.9305 16.3119 14.225 15.949 14.225" fill="#464646"/>
<path fill-rule="evenodd" clip-rule="evenodd" d="M12.0594 14.225C11.6965 14.225 11.3984 13.9305 11.3984 13.5676C11.3984 13.2047 11.6886 12.9102 12.0515 12.9102H12.0594C12.4223 12.9102 12.7168 13.2047 12.7168 13.5676C12.7168 13.9305 12.4223 14.225 12.0594 14.225" fill="#464646"/>
<path fill-rule="evenodd" clip-rule="evenodd" d="M8.16083 14.225C7.79793 14.225 7.49902 13.9305 7.49902 13.5676C7.49902 13.2047 7.79004 12.9102 8.15295 12.9102H8.16083C8.52373 12.9102 8.81826 13.2047 8.81826 13.5676C8.81826 13.9305 8.52373 14.225 8.16083 14.225" fill="#464646"/>
<path fill-rule="evenodd" clip-rule="evenodd" d="M15.949 17.6391C15.5861 17.6391 15.2881 17.3445 15.2881 16.9816C15.2881 16.6187 15.5782 16.3242 15.9411 16.3242H15.949C16.3119 16.3242 16.6064 16.6187 16.6064 16.9816C16.6064 17.3445 16.3119 17.6391 15.949 17.6391" fill="#464646"/>
<path fill-rule="evenodd" clip-rule="evenodd" d="M12.0594 17.6391C11.6965 17.6391 11.3984 17.3445 11.3984 16.9816C11.3984 16.6187 11.6886 16.3242 12.0515 16.3242H12.0594C12.4223 16.3242 12.7168 16.6187 12.7168 16.9816C12.7168 17.3445 12.4223 17.6391 12.0594 17.6391" fill="#464646"/>
<path fill-rule="evenodd" clip-rule="evenodd" d="M8.16083 17.6391C7.79793 17.6391 7.49902 17.3445 7.49902 16.9816C7.49902 16.6187 7.79004 16.3242 8.15295 16.3242H8.16083C8.52373 16.3242 8.81826 16.6187 8.81826 16.9816C8.81826 17.3445 8.52373 17.6391 8.16083 17.6391" fill="#464646"/>
<path fill-rule="evenodd" clip-rule="evenodd" d="M15.591 7.19965C15.2281 7.19965 14.9336 6.90512 14.9336 6.54222V3.65743C14.9336 3.29453 15.2281 3 15.591 3C15.9539 3 16.2484 3.29453 16.2484 3.65743V6.54222C16.2484 6.90512 15.9539 7.19965 15.591 7.19965" fill="#464646"/>
<path fill-rule="evenodd" clip-rule="evenodd" d="M8.50997 7.19965C8.14707 7.19965 7.85254 6.90512 7.85254 6.54222V3.65743C7.85254 3.29453 8.14707 3 8.50997 3C8.87287 3 9.1674 3.29453 9.1674 3.65743V6.54222C9.1674 6.90512 8.87287 7.19965 8.50997 7.19965" fill="#464646"/>
<mask id="mask0_1997_27472" style="mask-type:luminance" maskUnits="userSpaceOnUse" x="3" y="4" width="18" height="18">
<path fill-rule="evenodd" clip-rule="evenodd" d="M3.5 4.38672H20.5931V21.8488H3.5V4.38672Z" fill="white"/>
</mask>
<g mask="url(#mask0_1997_27472)">
<path fill-rule="evenodd" clip-rule="evenodd" d="M8.34012 5.70312C6.06717 5.70312 4.81543 6.91542 4.81543 9.11649V17.0486C4.81543 19.2979 6.06717 20.5356 8.34012 20.5356H15.7542C18.0271 20.5356 19.2788 19.3207 19.2788 17.1152V9.11649C19.2824 8.03393 18.9913 7.19242 18.4137 6.61388C17.8194 6.01781 16.9033 5.70312 15.762 5.70312H8.34012ZM15.7536 21.8489H8.33955C5.35482 21.8489 3.5 20.009 3.5 17.047V9.11494C3.5 6.19771 5.35482 4.38672 8.33955 4.38672H15.7615C17.2595 4.38672 18.4981 4.83552 19.344 5.68317C20.1654 6.50802 20.5975 7.69402 20.5931 9.11669V17.1136C20.5931 20.0344 18.7383 21.8489 15.7536 21.8489V21.8489Z" fill="#464646"/>
</g>
</svg>
