<svg width="16" height="16" viewBox="0 0 16 16" fill="none" xmlns="http://www.w3.org/2000/svg">
<path fill-rule="evenodd" clip-rule="evenodd" d="M4.79604 3.22101C5.06401 2.734 5.35552 2.40843 5.78809 2.23626C6.58076 1.92107 9.41969 1.92107 10.2117 2.23632C10.6441 2.4084 10.9357 2.73391 11.2039 3.22083L11.5053 3.79893C11.5122 3.81038 11.5186 3.82045 11.5243 3.82912L11.5499 3.86413C11.6872 4.01379 11.9171 4.10421 12.0688 4.10421C13.5035 4.10421 14.6668 5.26727 14.6668 6.70154V10.5649C14.6668 12.3944 13.183 13.8782 11.3535 13.8782H4.64683C2.8169 13.8782 1.3335 12.3946 1.3335 10.5649V6.70154C1.3335 5.26727 2.49681 4.10421 3.9315 4.10421C4.08268 4.10421 4.31288 4.01366 4.45046 3.86413C4.4532 3.86113 4.45679 3.85667 4.46113 3.85077L4.49541 3.79818L4.79604 3.22101ZM10.3278 3.70323C10.1611 3.40067 10.0105 3.23257 9.84176 3.1654L9.76221 3.13896C9.07612 2.94503 6.68961 2.95385 6.15757 3.1654C5.98889 3.23254 5.83846 3.40055 5.67201 3.70305L5.41544 4.19911L5.35229 4.3134C5.29957 4.40108 5.24684 4.4751 5.18663 4.54071C4.84899 4.90771 4.3495 5.10418 3.93133 5.10418L3.82194 5.10786C2.9905 5.16408 2.33333 5.85632 2.33333 6.70151V10.5648C2.33333 11.8423 3.36906 12.8782 4.64667 12.8782H11.3533C12.6305 12.8782 13.6667 11.842 13.6667 10.5648V6.70151C13.6667 5.81958 12.9511 5.10418 12.0687 5.10418L11.9526 5.09933C11.5602 5.06704 11.1195 4.87429 10.813 4.54026C10.7535 4.47553 10.7011 4.40204 10.6487 4.31509C10.6412 4.30262 10.6318 4.2862 10.6211 4.26677L10.5437 4.12161L10.3278 3.70323Z" fill="white"/>
<path d="M11.6692 5.66663C12.0374 5.66663 12.3359 5.9651 12.3359 6.33329C12.3359 6.67518 12.0786 6.95696 11.747 6.99547L11.6692 6.99996C11.2951 6.99996 10.9966 6.70148 10.9966 6.33329C10.9966 5.9914 11.2539 5.70962 11.5855 5.67111L11.6692 5.66663Z" fill="white"/>
<path fill-rule="evenodd" clip-rule="evenodd" d="M5.38037 8.75202C5.38037 7.30521 6.5529 6.13269 7.9997 6.13269C9.44651 6.13269 10.619 7.30521 10.619 8.75202C10.619 10.1988 9.44651 11.3714 7.9997 11.3714C6.5529 11.3714 5.38037 10.1988 5.38037 8.75202ZM9.6192 8.75198C9.6192 7.85746 8.89439 7.13265 7.99987 7.13265C7.10534 7.13265 6.38053 7.85746 6.38053 8.75198C6.38053 9.64651 7.10534 10.3713 7.99987 10.3713C8.89439 10.3713 9.6192 9.64651 9.6192 8.75198Z" fill="white"/>
</svg>
