<svg width="16" height="16" viewBox="0 0 16 16" fill="none" xmlns="http://www.w3.org/2000/svg">
<path fill-rule="evenodd" clip-rule="evenodd" d="M8.00016 2.33337C4.8755 2.33337 2.3335 4.87537 2.3335 8.00004C2.3335 11.1247 4.8755 13.6667 8.00016 13.6667C11.1248 13.6667 13.6668 11.1247 13.6668 8.00004C13.6668 4.87537 11.1248 2.33337 8.00016 2.33337ZM8.00016 14.6667C4.32416 14.6667 1.3335 11.676 1.3335 8.00004C1.3335 4.32404 4.32416 1.33337 8.00016 1.33337C11.6762 1.33337 14.6668 4.32404 14.6668 8.00004C14.6668 11.676 11.6762 14.6667 8.00016 14.6667Z" fill="#464646"/>
<path fill-rule="evenodd" clip-rule="evenodd" d="M10.2877 10.4617C10.2004 10.4617 10.1124 10.439 10.0317 10.3917L7.51841 8.89235C7.36775 8.80168 7.27441 8.63835 7.27441 8.46235V5.23035C7.27441 4.95435 7.49841 4.73035 7.77441 4.73035C8.05108 4.73035 8.27441 4.95435 8.27441 5.23035V8.17835L10.5444 9.53168C10.7811 9.67368 10.8591 9.98035 10.7177 10.2177C10.6237 10.3743 10.4577 10.4617 10.2877 10.4617Z" fill="#464646"/>
</svg>
