<svg width="24" height="24" viewBox="0 0 24 24" fill="none" xmlns="http://www.w3.org/2000/svg">
<path fill-rule="evenodd" clip-rule="evenodd" d="M11.9996 4.35156C7.78131 4.35156 4.34961 7.78326 4.34961 12.0016C4.34961 16.2199 7.78131 19.6516 11.9996 19.6516C16.2179 19.6516 19.6496 16.2199 19.6496 12.0016C19.6496 7.78326 16.2179 4.35156 11.9996 4.35156M12 21C7.0374 21 3 16.9626 3 12C3 7.0374 7.0374 3 12 3C16.9626 3 21 7.0374 21 12C21 16.9626 16.9626 21 12 21" fill="#464646"/>
<path fill-rule="evenodd" clip-rule="evenodd" d="M15.0875 15.3232C14.9696 15.3232 14.8508 15.2926 14.7419 15.2287L11.3489 13.2046C11.1455 13.0822 11.0195 12.8617 11.0195 12.6241V8.26094C11.0195 7.88834 11.3219 7.58594 11.6945 7.58594C12.068 7.58594 12.3695 7.88834 12.3695 8.26094V12.2407L15.434 14.0677C15.7535 14.2594 15.8588 14.6734 15.668 14.9938C15.5411 15.2053 15.317 15.3232 15.0875 15.3232" fill="#464646"/>
</svg>
