<svg width="128" height="54" viewBox="0 0 128 54" fill="none" xmlns="http://www.w3.org/2000/svg">
<g clip-path="url(#clip0_4144_32093)">
<path d="M22.72 24.7088H26.9793V32.974H31.9639V11.4709H26.9793V19.7387H22.72V11.4709H17.7354V32.974H22.72V24.7088Z" fill="#222222"/>
<path d="M25.1325 39.2488C21.0526 39.2488 17.7354 42.5564 17.7354 46.6244C17.7354 50.6924 21.0526 54 25.1325 54C29.2124 54 32.5297 50.6924 32.5297 46.6244C32.5297 42.5564 29.2124 39.2488 25.1325 39.2488ZM27.5451 46.6244C27.5451 47.9514 26.4634 49.0299 25.1325 49.0299C23.8016 49.0299 22.72 47.9514 22.72 46.6244C22.72 45.2974 23.8016 44.2189 25.1325 44.2189C26.4634 44.2189 27.5451 45.2974 27.5451 46.6244Z" fill="#222222"/>
<path d="M49.5347 12.0798V12.5768H54.5193V12.0798C54.5193 5.41988 49.0861 0 42.4042 0H41.9058V4.97009H42.4042C46.3346 4.97009 49.5347 8.1584 49.5347 12.0798Z" fill="#222222"/>
<path d="M61.2064 14.5773H40.9663V19.5474H61.2064V14.5773Z" fill="#222222"/>
<path d="M47.2814 38.0435H54.0305V23.2972H41.9055V28.2673H49.0459V33.0734H41.8481V35.5584C41.8481 42.2184 47.2814 47.6382 53.9633 47.6382H54.4617V42.6682H53.9633C50.9725 42.6682 48.3132 40.7969 47.2839 38.0435H47.2814Z" fill="#222222"/>
<path d="M89.5115 24.7088H93.7733V32.974H98.7579V11.4709H93.7733V19.7387H89.5115V11.4709H84.5269V32.974H89.5115V24.7088Z" fill="#222222"/>
<path d="M91.924 39.2488C87.8441 39.2488 84.5269 42.5564 84.5269 46.6244C84.5269 50.6924 87.8441 54 91.924 54C96.0039 54 99.3212 50.6924 99.3212 46.6244C99.3212 42.5564 96.0039 39.2488 91.924 39.2488ZM94.3366 46.6244C94.3366 47.9514 93.2549 49.0299 91.924 49.0299C90.5931 49.0299 89.5115 47.9514 89.5115 46.6244C89.5115 45.2974 90.5931 44.2189 91.924 44.2189C93.2549 44.2189 94.3366 45.2974 94.3366 46.6244Z" fill="#222222"/>
<path d="M116.326 12.0798V12.5768H121.311V12.0798C121.311 5.41988 115.878 0 109.196 0H108.697V4.97009H109.196C113.126 4.97009 116.326 8.1584 116.326 12.0798Z" fill="#222222"/>
<path d="M128 14.5773H107.76V19.5474H128V14.5773Z" fill="#222222"/>
<path d="M114.073 38.0435H120.822V23.2972H108.697V28.2673H115.837V33.0734H108.64V35.5584C108.64 42.2184 114.073 47.6382 120.755 47.6382H121.253V42.6682H120.755C117.764 42.6682 115.105 40.7969 114.075 38.0435H114.073Z" fill="#222222"/>
<path d="M4.88991 21.5577V19.4976H11.9357V14.6219H0V21.5577C0 27.405 5.2164 32.1639 11.6291 32.1639H12.1276V27.2882H11.6291C7.91308 27.2882 4.88991 24.7187 4.88991 21.5577Z" fill="#222222"/>
<path d="M71.761 21.5577V19.4976H78.8068V14.6219H66.8711V21.5577C66.8711 27.405 72.0875 32.1639 78.5002 32.1639H78.9987V27.2882H78.5002C74.7842 27.2882 71.761 24.7187 71.761 21.5577Z" fill="#222222"/>
</g>
<defs>
<clipPath id="clip0_4144_32093">
<rect width="128" height="54" fill="white"/>
</clipPath>
</defs>
</svg>
