<svg width="279" height="30" viewBox="0 0 279 30" fill="none" xmlns="http://www.w3.org/2000/svg">
<g clip-path="url(#clip0_412_9602)">
<path d="M84.4042 5.96943C85.3331 6.45588 86.0735 7.08131 86.6044 7.85268V5.51078H90.8022V22.0292C90.8022 23.5511 90.4949 24.9062 89.8802 26.1015C89.2656 27.2967 88.3436 28.2418 87.1143 28.9437C85.8849 29.6456 84.3972 29.9931 82.651 29.9931C80.3111 29.9931 78.3903 29.451 76.8955 28.3669C75.3938 27.2828 74.5486 25.8026 74.3531 23.9263H78.4881C78.7046 24.6769 79.1796 25.2745 79.899 25.7193C80.6184 26.164 81.4985 26.3864 82.5323 26.3864C83.7406 26.3864 84.7255 26.025 85.4798 25.3023C86.2342 24.5796 86.6114 23.4885 86.6114 22.0292V19.4858C86.0735 20.2571 85.3331 20.8965 84.3972 21.4107C83.4542 21.925 82.3786 22.1821 81.1702 22.1821C79.7802 22.1821 78.509 21.8277 77.3635 21.1188C76.211 20.41 75.303 19.4093 74.6394 18.1098C73.9759 16.8172 73.6406 15.3301 73.6406 13.6553C73.6406 11.9805 73.9689 10.5281 74.6394 9.24253C75.303 7.95692 76.204 6.97012 77.3495 6.28215C78.4881 5.59417 79.7663 5.2467 81.1702 5.2467C82.3995 5.2467 83.4822 5.48993 84.4181 5.96943H84.4042ZM86.0107 11.1188C85.6125 10.3961 85.0817 9.84712 84.4042 9.45796C83.7266 9.07575 83.0072 8.88117 82.2319 8.88117C81.4566 8.88117 80.7441 9.0688 80.0876 9.44406C79.431 9.81932 78.9002 10.3683 78.495 11.0841C78.0899 11.8068 77.8874 12.6616 77.8874 13.6484C77.8874 14.6352 78.0899 15.4969 78.495 16.2404C78.9002 16.984 79.438 17.5469 80.1015 17.943C80.7651 18.3391 81.4775 18.5337 82.2319 18.5337C82.9863 18.5337 83.7266 18.3391 84.4042 17.9569C85.0817 17.5747 85.6125 17.0188 86.0107 16.296C86.4088 15.5733 86.6044 14.7116 86.6044 13.704C86.6044 12.6963 86.4018 11.8346 86.0107 11.1119V11.1188Z" fill="black"/>
<path d="M54.069 14.9548H42.8584C42.7257 14.9548 42.621 15.073 42.6349 15.205C42.7676 16.2683 43.1239 16.852 43.8084 17.4774C44.5418 18.1515 46.0994 18.5546 47.168 18.5963C49.92 18.7144 51.9037 17.8874 53.0911 17.1717C53.4055 16.984 53.7826 17.3176 53.6359 17.6512C53.1191 18.8395 52.3088 19.8402 51.2192 20.6602C49.8712 21.6748 48.2158 22.1821 46.2461 22.1821C44.6605 22.1821 43.2356 21.8346 41.9784 21.1327C40.7211 20.4309 39.7362 19.4371 39.0308 18.1585C38.3253 16.8728 37.9761 15.3926 37.9761 13.7179C37.9761 12.0431 38.3253 10.5282 39.0168 9.24949C39.7083 7.96388 40.6862 6.97708 41.9364 6.2891C43.1867 5.60113 44.6256 5.25366 46.253 5.25366C47.8805 5.25366 49.2216 5.58723 50.4649 6.26131C51.7081 6.93539 52.6651 7.88744 53.3496 9.11746C54.0341 10.3544 54.3763 11.7651 54.3763 13.3635C54.3763 13.8777 54.3484 14.3503 54.2855 14.7811C54.2716 14.8923 54.1738 14.9687 54.069 14.9687V14.9548ZM49.8292 12.1682C49.955 12.1682 50.0597 12.057 50.0528 11.9319C49.9829 10.9729 49.5987 10.2015 48.9003 9.60391C48.1459 8.96457 47.2239 8.63796 46.1343 8.63796C45.1006 8.63796 44.2344 8.95067 43.529 9.56916C42.8794 10.139 42.4603 10.9173 42.2787 11.8972C42.2508 12.0292 42.3625 12.1543 42.4952 12.1543H49.8223L49.8292 12.1682Z" fill="black"/>
<path d="M134.995 14.9548H123.784C123.652 14.9548 123.547 15.073 123.561 15.205C123.693 16.2683 124.05 16.852 124.734 17.4774C125.468 18.1515 127.025 18.5546 128.094 18.5963C130.846 18.7144 132.83 17.8874 134.017 17.1717C134.331 16.984 134.708 17.3176 134.562 17.6512C134.045 18.8395 133.235 19.8402 132.145 20.6602C130.797 21.6748 129.142 22.1821 127.172 22.1821C125.586 22.1821 124.161 21.8346 122.904 21.1327C121.647 20.4309 120.662 19.4371 119.957 18.1585C119.251 16.8728 118.902 15.3926 118.902 13.7179C118.902 12.0431 119.251 10.5282 119.943 9.24949C120.634 7.96388 121.612 6.97708 122.862 6.2891C124.112 5.60113 125.551 5.25366 127.179 5.25366C128.806 5.25366 130.147 5.58723 131.391 6.26131C132.634 6.93539 133.591 7.88744 134.275 9.11746C134.96 10.3544 135.302 11.7651 135.302 13.3635C135.302 13.8777 135.274 14.3503 135.211 14.7811C135.197 14.8923 135.1 14.9687 134.995 14.9687V14.9548ZM130.755 12.1682C130.881 12.1682 130.986 12.057 130.979 11.9319C130.909 10.9729 130.525 10.2015 129.826 9.60391C129.072 8.96457 128.15 8.63796 127.06 8.63796C126.026 8.63796 125.16 8.95067 124.455 9.56916C123.805 10.139 123.386 10.9173 123.204 11.8972C123.177 12.0292 123.288 12.1543 123.421 12.1543H130.748L130.755 12.1682Z" fill="black"/>
<path d="M103.668 5.96943C104.597 6.45588 105.337 7.08131 105.868 7.85268V5.51078H110.066V22.0292C110.066 23.5511 109.759 24.9062 109.144 26.1015C108.529 27.2967 107.607 28.2418 106.378 28.9437C105.149 29.6456 103.661 29.9931 101.915 29.9931C99.5749 29.9931 97.6541 29.451 96.1524 28.3669C94.6506 27.2828 93.8055 25.8026 93.6099 23.9263H97.7449C97.9614 24.6769 98.4364 25.2745 99.1558 25.7193C99.8753 26.164 100.755 26.3864 101.789 26.3864C102.997 26.3864 103.982 26.025 104.737 25.3023C105.491 24.5796 105.868 23.4885 105.868 22.0292V19.4858C105.33 20.2571 104.59 20.8965 103.654 21.4107C102.711 21.925 101.635 22.1821 100.427 22.1821C99.0371 22.1821 97.7659 21.8277 96.6203 21.1188C95.4679 20.41 94.5598 19.4093 93.8963 18.1098C93.2327 16.8172 92.8975 15.3301 92.8975 13.6553C92.8975 11.9805 93.2327 10.5281 93.8963 9.24253C94.5598 7.95692 95.4609 6.97012 96.6064 6.28215C97.7449 5.59417 99.0231 5.2467 100.427 5.2467C101.656 5.2467 102.739 5.48993 103.675 5.96943H103.668ZM105.274 11.1188C104.876 10.3961 104.339 9.84712 103.668 9.45796C102.99 9.07575 102.271 8.88117 101.496 8.88117C100.72 8.88117 100.008 9.0688 99.3514 9.44406C98.6948 9.81932 98.164 10.3683 97.7589 11.0841C97.3538 11.8068 97.1512 12.6616 97.1512 13.6484C97.1512 14.6352 97.3538 15.4969 97.7589 16.2404C98.164 16.984 98.7018 17.5469 99.3654 17.943C100.029 18.3391 100.741 18.5337 101.496 18.5337C102.25 18.5337 102.99 18.3391 103.668 17.9569C104.339 17.5747 104.876 17.0188 105.274 16.296C105.673 15.5733 105.868 14.7116 105.868 13.704C105.868 12.6963 105.673 11.8346 105.274 11.1119V11.1188Z" fill="black"/>
<path d="M17.1756 18.1584V0H12.9498V7.79013C12.1954 6.77554 11.0918 6.03197 9.65296 5.54552C9.24785 5.41348 8.82876 5.32314 8.40967 5.28145C6.66348 5.12161 5.09889 5.44823 3.72289 6.27519C2.5704 6.96317 1.66238 7.95692 0.998823 9.23558C0.335269 10.5212 0 11.9875 0 13.6484C0 15.3092 0.335269 16.8103 0.998823 18.1028C1.66238 19.3954 2.5704 20.3961 3.72289 21.1119C4.87538 21.8207 6.14661 22.1751 7.52959 22.1751C8.75891 22.1751 9.84155 21.9249 10.7775 21.4385C11.7065 20.9451 12.4329 20.2919 12.9498 19.4858C12.9498 20.827 14.0464 21.7999 15.3875 21.9111C16.7285 22.0222 18.7611 21.7095 19.4386 19.9583C19.5225 19.7498 19.3688 19.5136 19.1383 19.5136H18.5376C17.7832 19.5136 17.1686 18.902 17.1686 18.1515L17.1756 18.1584ZM12.384 16.303C11.9859 17.0257 11.4481 17.5747 10.7775 17.9639C10.1 18.3461 9.38056 18.5407 8.60525 18.5407C7.82994 18.5407 7.14543 18.3461 6.47489 17.95C5.81134 17.5539 5.27351 16.991 4.86839 16.2474C4.46327 15.5108 4.26072 14.6421 4.26072 13.6553C4.26072 12.6685 4.46327 11.8138 4.86839 11.091C5.27351 10.3683 5.80435 9.81932 6.46092 9.45101C7.11749 9.0827 7.82994 8.88812 8.60525 8.88812C9.38056 8.88812 10.1 9.0827 10.7775 9.46491C11.4481 9.84712 11.9859 10.4031 12.384 11.1258C12.7821 11.8485 12.9777 12.7102 12.9777 13.7179C12.9777 14.7255 12.7821 15.5872 12.384 16.3099V16.303Z" fill="black"/>
<path d="M36.1604 18.1584V5.51072H31.9346V7.79008C31.1803 6.77548 30.0767 6.03191 28.6378 5.54546C28.2327 5.41343 27.8136 5.32309 27.3945 5.28139C25.6483 5.12156 24.0838 5.44817 22.7077 6.27514C21.5553 6.96311 20.6472 7.95686 19.9837 9.23553C19.3201 10.5211 18.9849 11.9874 18.9849 13.6483C18.9849 15.3092 19.3201 16.8102 19.9837 18.1028C20.6472 19.3954 21.5553 20.3961 22.7077 21.1118C23.8602 21.8207 25.1315 22.1751 26.5145 22.1751C27.7438 22.1751 28.8264 21.9249 29.7624 21.4384C30.6914 20.945 31.4178 20.2918 31.9346 19.4857C31.9346 20.8269 33.0313 21.7998 34.3723 21.911C35.7134 22.0222 37.746 21.7095 38.4235 19.9583C38.5073 19.7498 38.3537 19.5135 38.1232 19.5135H37.5225C36.7681 19.5135 36.1534 18.902 36.1534 18.1514L36.1604 18.1584ZM31.3689 16.3029C30.9707 17.0257 30.4329 17.5747 29.7624 17.9638C29.0849 18.346 28.3654 18.5406 27.5901 18.5406C26.8148 18.5406 26.1303 18.346 25.4598 17.9499C24.7962 17.5538 24.2584 16.9909 23.8533 16.2473C23.4481 15.5107 23.2456 14.6421 23.2456 13.6553C23.2456 12.6685 23.4481 11.8137 23.8533 11.091C24.2584 10.3683 24.7892 9.81927 25.4458 9.45095C26.1024 9.08264 26.8148 8.88806 27.5901 8.88806C28.3654 8.88806 29.0849 9.08264 29.7624 9.46485C30.4329 9.84706 30.9707 10.403 31.3689 11.1257C31.767 11.8485 31.9626 12.7102 31.9626 13.7178C31.9626 14.7255 31.767 15.5872 31.3689 16.3099V16.3029Z" fill="black"/>
<path d="M73.0886 19.6387C72.453 19.6387 71.9361 19.1244 71.9361 18.492V12.2863C71.9361 10.0765 71.3284 8.35305 70.1201 7.11608C68.9117 5.88606 67.3192 5.26758 65.3565 5.26758C64.3227 5.26758 63.3798 5.46911 62.5136 5.87216C61.6475 6.27522 60.9421 6.83116 60.3833 7.54694V5.50385H56.2134V21.9111H60.3833V12.8492C60.3833 11.5497 60.7116 10.5421 61.3821 9.84715C62.0526 9.15222 62.9537 8.79781 64.1062 8.79781C65.2587 8.79781 66.1318 9.14527 66.7813 9.84715C67.4309 10.549 67.7662 11.5497 67.7662 12.8492V19.6873C67.7662 19.868 67.7802 20.0209 67.8011 20.1668C67.8011 20.1668 67.8011 20.1668 67.8011 20.1738C67.8221 20.3058 67.85 20.4239 67.8919 20.5282C68.1713 21.3899 68.8907 21.9389 69.9245 22.0292C71.3354 22.1543 73.4309 21.8068 74.0385 19.9097C74.0804 19.7777 73.9757 19.6387 73.829 19.6387H73.0816H73.0886Z" fill="black"/>
<path d="M117.973 19.6386C117.338 19.6386 116.821 19.1244 116.821 18.492V0H112.658V19.6873C112.658 21.0285 113.475 21.9111 114.823 22.0292C116.199 22.1473 118.225 21.8207 118.888 20.0417C118.958 19.8471 118.825 19.6386 118.616 19.6386H117.98H117.973Z" fill="black"/>
<path d="M228.102 5.96943C229.031 6.45588 229.771 7.08131 230.302 7.85268V5.51078H234.5V22.0292C234.5 23.5511 234.193 24.9062 233.578 26.1015C232.963 27.2967 232.041 28.2418 230.812 28.9437C229.583 29.6456 228.095 29.9931 226.349 29.9931C224.009 29.9931 222.088 29.451 220.593 28.3669C219.092 27.2828 218.246 25.8026 218.051 23.9263H222.186C222.402 24.6769 222.877 25.2745 223.597 25.7193C224.316 26.164 225.196 26.3864 226.23 26.3864C227.438 26.3864 228.423 26.025 229.178 25.3023C229.932 24.5796 230.309 23.4885 230.309 22.0292V19.4858C229.771 20.2571 229.031 20.8965 228.095 21.4107C227.152 21.925 226.076 22.1821 224.868 22.1821C223.478 22.1821 222.207 21.8277 221.061 21.1188C219.909 20.41 219.001 19.4093 218.337 18.1098C217.674 16.8172 217.338 15.3301 217.338 13.6553C217.338 11.9805 217.667 10.5281 218.337 9.24253C219.001 7.95692 219.902 6.97012 221.047 6.28215C222.186 5.59417 223.464 5.2467 224.868 5.2467C226.097 5.2467 227.18 5.48993 228.116 5.96943H228.102ZM229.708 11.1188C229.31 10.3961 228.779 9.84712 228.102 9.45796C227.424 9.07575 226.705 8.88117 225.93 8.88117C225.154 8.88117 224.442 9.0688 223.785 9.44406C223.129 9.81932 222.598 10.3683 222.193 11.0841C221.788 11.8068 221.585 12.6616 221.585 13.6484C221.585 14.6352 221.788 15.4969 222.193 16.2404C222.598 16.984 223.136 17.5469 223.799 17.943C224.463 18.3391 225.175 18.5337 225.93 18.5337C226.684 18.5337 227.424 18.3391 228.102 17.9569C228.779 17.5747 229.31 17.0188 229.708 16.296C230.107 15.5733 230.302 14.7116 230.302 13.704C230.302 12.6963 230.1 11.8346 229.708 11.1119V11.1188Z" fill="black"/>
<path d="M197.76 14.9548H186.549C186.417 14.9548 186.312 15.073 186.326 15.205C186.459 16.2683 186.815 16.852 187.499 17.4774C188.233 18.1515 189.79 18.5546 190.859 18.5963C193.611 18.7144 195.595 17.8874 196.782 17.1717C197.096 16.984 197.474 17.3176 197.327 17.6512C196.81 18.8395 196 19.8402 194.91 20.6602C193.562 21.6748 191.907 22.1821 189.937 22.1821C188.351 22.1821 186.927 21.8346 185.669 21.1327C184.412 20.4309 183.427 19.4371 182.722 18.1585C182.016 16.8728 181.667 15.3926 181.667 13.7179C181.667 12.0431 182.016 10.5282 182.708 9.24949C183.399 7.96388 184.377 6.97708 185.627 6.2891C186.878 5.60113 188.317 5.25366 189.944 5.25366C191.571 5.25366 192.912 5.58723 194.156 6.26131C195.399 6.93539 196.356 7.88744 197.04 9.11746C197.725 10.3544 198.067 11.7651 198.067 13.3635C198.067 13.8777 198.039 14.3503 197.976 14.7811C197.962 14.8923 197.865 14.9687 197.76 14.9687V14.9548ZM193.52 12.1682C193.646 12.1682 193.751 12.057 193.744 11.9319C193.674 10.9729 193.29 10.2015 192.591 9.60391C191.837 8.96457 190.915 8.63796 189.825 8.63796C188.791 8.63796 187.925 8.95067 187.22 9.56916C186.57 10.139 186.151 10.9173 185.97 11.8972C185.942 12.0292 186.053 12.1543 186.186 12.1543H193.513L193.52 12.1682Z" fill="black"/>
<path d="M278.686 14.9548H267.475C267.342 14.9548 267.238 15.073 267.252 15.205C267.384 16.2683 267.741 16.852 268.425 17.4774C269.158 18.1515 270.716 18.5546 271.785 18.5963C274.537 18.7144 276.52 17.8874 277.708 17.1717C278.022 16.984 278.399 17.3176 278.253 17.6512C277.736 18.8395 276.926 19.8402 275.836 20.6602C274.488 21.6748 272.832 22.1821 270.863 22.1821C269.277 22.1821 267.852 21.8346 266.595 21.1327C265.338 20.4309 264.353 19.4371 263.647 18.1585C262.942 16.8728 262.593 15.3926 262.593 13.7179C262.593 12.0431 262.942 10.5282 263.633 9.24949C264.325 7.96388 265.303 6.97708 266.553 6.2891C267.803 5.60113 269.242 5.25366 270.87 5.25366C272.497 5.25366 273.838 5.58723 275.082 6.26131C276.325 6.93539 277.282 7.88744 277.966 9.11746C278.651 10.3544 278.993 11.7651 278.993 13.3635C278.993 13.8777 278.965 14.3503 278.902 14.7811C278.888 14.8923 278.79 14.9687 278.686 14.9687V14.9548ZM274.446 12.1682C274.572 12.1682 274.676 12.057 274.669 11.9319C274.6 10.9729 274.215 10.2015 273.517 9.60391C272.763 8.96457 271.841 8.63796 270.751 8.63796C269.717 8.63796 268.851 8.95067 268.146 9.56916C267.496 10.139 267.077 10.9173 266.895 11.8972C266.867 12.0292 266.979 12.1543 267.112 12.1543H274.439L274.446 12.1682Z" fill="black"/>
<path d="M247.366 5.96943C248.295 6.45588 249.036 7.08131 249.566 7.85268V5.51078H253.764V22.0292C253.764 23.5511 253.457 24.9062 252.842 26.1015C252.228 27.2967 251.306 28.2418 250.076 28.9437C248.847 29.6456 247.359 29.9931 245.613 29.9931C243.273 29.9931 241.352 29.451 239.851 28.3669C238.349 27.2828 237.504 25.8026 237.308 23.9263H241.443C241.66 24.6769 242.135 25.2745 242.854 25.7193C243.573 26.164 244.454 26.3864 245.487 26.3864C246.696 26.3864 247.681 26.025 248.435 25.3023C249.189 24.5796 249.566 23.4885 249.566 22.0292V19.4858C249.029 20.2571 248.288 20.8965 247.352 21.4107C246.409 21.925 245.334 22.1821 244.125 22.1821C242.735 22.1821 241.464 21.8277 240.319 21.1188C239.166 20.41 238.258 19.4093 237.595 18.1098C236.931 16.8172 236.596 15.3301 236.596 13.6553C236.596 11.9805 236.931 10.5281 237.595 9.24253C238.258 7.95692 239.159 6.97012 240.305 6.28215C241.443 5.59417 242.721 5.2467 244.125 5.2467C245.355 5.2467 246.437 5.48993 247.373 5.96943H247.366ZM248.973 11.1188C248.575 10.3961 248.037 9.84712 247.366 9.45796C246.689 9.07575 245.969 8.88117 245.194 8.88117C244.419 8.88117 243.706 9.0688 243.05 9.44406C242.393 9.81932 241.862 10.3683 241.457 11.0841C241.052 11.8068 240.849 12.6616 240.849 13.6484C240.849 14.6352 241.052 15.4969 241.457 16.2404C241.862 16.984 242.4 17.5469 243.064 17.943C243.727 18.3391 244.44 18.5337 245.194 18.5337C245.948 18.5337 246.689 18.3391 247.366 17.9569C248.037 17.5747 248.575 17.0188 248.973 16.296C249.371 15.5733 249.566 14.7116 249.566 13.704C249.566 12.6963 249.371 11.8346 248.973 11.1119V11.1188Z" fill="black"/>
<path d="M160.866 18.1584V0H156.641V7.79013C155.886 6.77554 154.783 6.03197 153.344 5.54552C152.939 5.41348 152.52 5.32314 152.101 5.28145C150.354 5.12161 148.79 5.44823 147.414 6.27519C146.261 6.96317 145.353 7.95692 144.69 9.23558C144.026 10.5212 143.691 11.9875 143.691 13.6484C143.691 15.3092 144.026 16.8103 144.69 18.1028C145.353 19.3954 146.261 20.3961 147.414 21.1119C148.566 21.8207 149.838 22.1751 151.221 22.1751C152.45 22.1751 153.532 21.9249 154.468 21.4385C155.397 20.9451 156.124 20.2919 156.641 19.4858C156.641 20.827 157.737 21.7999 159.078 21.9111C160.419 22.0222 162.452 21.7095 163.13 19.9583C163.213 19.7498 163.06 19.5136 162.829 19.5136H162.229C161.474 19.5136 160.86 18.902 160.86 18.1515L160.866 18.1584ZM156.075 16.303C155.677 17.0257 155.139 17.5747 154.468 17.9639C153.791 18.3461 153.071 18.5407 152.296 18.5407C151.521 18.5407 150.836 18.3461 150.166 17.95C149.502 17.5539 148.964 16.991 148.559 16.2474C148.154 15.5108 147.952 14.6421 147.952 13.6553C147.952 12.6685 148.154 11.8138 148.559 11.091C148.964 10.3683 149.495 9.81932 150.152 9.45101C150.808 9.0827 151.521 8.88812 152.296 8.88812C153.071 8.88812 153.791 9.0827 154.468 9.46491C155.139 9.84712 155.677 10.4031 156.075 11.1258C156.473 11.8485 156.669 12.7102 156.669 13.7179C156.669 14.7255 156.473 15.5872 156.075 16.3099V16.303Z" fill="black"/>
<path d="M179.858 18.1584V5.51072H175.632V7.79008C174.878 6.77548 173.774 6.03191 172.336 5.54546C171.93 5.41343 171.511 5.32309 171.092 5.28139C169.346 5.12156 167.782 5.44817 166.406 6.27514C165.253 6.96311 164.345 7.95686 163.681 9.23553C163.018 10.5211 162.683 11.9874 162.683 13.6483C162.683 15.3092 163.018 16.8102 163.681 18.1028C164.345 19.3954 165.253 20.3961 166.406 21.1118C167.558 21.8207 168.829 22.1751 170.212 22.1751C171.442 22.1751 172.524 21.9249 173.46 21.4384C174.389 20.945 175.116 20.2918 175.632 19.4857C175.632 20.8269 176.729 21.7998 178.07 21.911C179.411 22.0222 181.444 21.7095 182.121 19.9583C182.205 19.7498 182.051 19.5135 181.821 19.5135H181.22C180.466 19.5135 179.851 18.902 179.851 18.1514L179.858 18.1584ZM175.067 16.3029C174.668 17.0257 174.131 17.5747 173.46 17.9638C172.783 18.346 172.063 18.5406 171.288 18.5406C170.513 18.5406 169.828 18.346 169.157 17.9499C168.494 17.5538 167.956 16.9909 167.551 16.2473C167.146 15.5107 166.943 14.6421 166.943 13.6553C166.943 12.6685 167.146 11.8137 167.551 11.091C167.956 10.3683 168.487 9.81927 169.144 9.45095C169.8 9.08264 170.513 8.88806 171.288 8.88806C172.063 8.88806 172.783 9.08264 173.46 9.46485C174.131 9.84706 174.668 10.403 175.067 11.1257C175.465 11.8485 175.66 12.7102 175.66 13.7178C175.66 14.7255 175.465 15.5872 175.067 16.3099V16.3029Z" fill="black"/>
<path d="M216.78 19.6387C216.144 19.6387 215.627 19.1244 215.627 18.492V12.2863C215.627 10.0765 215.019 8.35305 213.811 7.11608C212.603 5.88606 211.01 5.26758 209.047 5.26758C208.014 5.26758 207.071 5.46911 206.205 5.87216C205.338 6.27522 204.633 6.83116 204.074 7.54694V5.50385H199.904V21.9111H204.074V12.8492C204.074 11.5497 204.402 10.5421 205.073 9.84715C205.744 9.15222 206.645 8.79781 207.797 8.79781C208.95 8.79781 209.823 9.14527 210.472 9.84715C211.122 10.549 211.457 11.5497 211.457 12.8492V19.6873C211.457 19.868 211.471 20.0209 211.492 20.1668C211.492 20.1668 211.492 20.1668 211.492 20.1738C211.513 20.3058 211.541 20.4239 211.583 20.5282C211.862 21.3899 212.582 21.9389 213.615 22.0292C215.026 22.1543 217.122 21.8068 217.729 19.9097C217.771 19.7777 217.667 19.6387 217.52 19.6387H216.773H216.78Z" fill="black"/>
<path d="M261.671 19.6386C261.035 19.6386 260.518 19.1244 260.518 18.492V0H256.355V19.6873C256.355 21.0285 257.173 21.9111 258.521 22.0292C259.897 22.1473 261.922 21.8207 262.586 20.0417C262.656 19.8471 262.523 19.6386 262.313 19.6386H261.678H261.671Z" fill="black"/>
</g>
<defs>
<clipPath id="clip0_412_9602">
<rect width="279" height="30" fill="white"/>
</clipPath>
</defs>
</svg>
