<svg width="54" height="22" viewBox="0 0 54 22" fill="none" xmlns="http://www.w3.org/2000/svg">
<g clip-path="url(#clip0_3449_4110)">
<path d="M9.58494 10.0665H11.3819V13.4339H13.4847V4.67334H11.3819V8.04168H9.58494V4.67334H7.48206V13.4339H9.58494V10.0665Z" fill="#6C6C6C"/>
<path d="M10.6027 15.9902C8.88153 15.9902 7.48206 17.3378 7.48206 18.9951C7.48206 20.6525 8.88153 22 10.6027 22C12.3239 22 13.7234 20.6525 13.7234 18.9951C13.7234 17.3378 12.3239 15.9902 10.6027 15.9902ZM11.6205 18.9951C11.6205 19.5357 11.1642 19.9751 10.6027 19.9751C10.0413 19.9751 9.58494 19.5357 9.58494 18.9951C9.58494 18.4545 10.0413 18.0151 10.6027 18.0151C11.1642 18.0151 11.6205 18.4545 11.6205 18.9951Z" fill="#6C6C6C"/>
<path d="M20.8974 4.9214V5.12388H23.0003V4.9214C23.0003 2.2081 20.7082 0 17.8892 0H17.679V2.02485H17.8892C19.5474 2.02485 20.8974 3.32379 20.8974 4.9214Z" fill="#6C6C6C"/>
<path d="M25.8213 5.93896H17.2826V7.96382H25.8213V5.93896Z" fill="#6C6C6C"/>
<path d="M19.9469 15.4992H22.7942V9.49146H17.679V11.5163H20.6914V13.4743H17.6548V14.4868C17.6548 17.2001 19.9469 19.4082 22.7658 19.4082H22.9761V17.3833H22.7658C21.5041 17.3833 20.3822 16.621 19.948 15.4992H19.9469Z" fill="#6C6C6C"/>
<path d="M37.7626 10.0665H39.5605V13.4339H41.6634V4.67334H39.5605V8.04168H37.7626V4.67334H35.6597V13.4339H37.7626V10.0665Z" fill="#6C6C6C"/>
<path d="M38.7803 15.9902C37.0591 15.9902 35.6597 17.3378 35.6597 18.9951C35.6597 20.6525 37.0591 22 38.7803 22C40.5016 22 41.901 20.6525 41.901 18.9951C41.901 17.3378 40.5016 15.9902 38.7803 15.9902ZM39.7981 18.9951C39.7981 19.5357 39.3418 19.9751 38.7803 19.9751C38.2189 19.9751 37.7626 19.5357 37.7626 18.9951C37.7626 18.4545 38.2189 18.0151 38.7803 18.0151C39.3418 18.0151 39.7981 18.4545 39.7981 18.9951Z" fill="#6C6C6C"/>
<path d="M49.075 4.9214V5.12388H51.1779V4.9214C51.1779 2.2081 48.8858 0 46.0669 0H45.8566V2.02485H46.0669C47.725 2.02485 49.075 3.32379 49.075 4.9214Z" fill="#6C6C6C"/>
<path d="M54 5.93896H45.4612V7.96382H54V5.93896Z" fill="#6C6C6C"/>
<path d="M48.1245 15.4992H50.9719V9.49146H45.8566V11.5163H48.869V13.4743H45.8324V14.4868C45.8324 17.2001 48.1245 19.4082 50.9435 19.4082H51.1538V17.3833H50.9435C49.6817 17.3833 48.5598 16.621 48.1256 15.4992H48.1245Z" fill="#6C6C6C"/>
<path d="M2.06293 8.78271V7.94341H5.03536V5.95703H0V8.78271C0 11.1649 2.20067 13.1037 4.90603 13.1037H5.11632V11.1174H4.90603C3.33833 11.1174 2.06293 10.0705 2.06293 8.78271Z" fill="#6C6C6C"/>
<path d="M30.2742 8.78271V7.94341H33.2466V5.95703H28.2113V8.78271C28.2113 11.1649 30.4119 13.1037 33.1173 13.1037H33.3276V11.1174H33.1173C31.5496 11.1174 30.2742 10.0705 30.2742 8.78271Z" fill="#6C6C6C"/>
</g>
<defs>
<clipPath id="clip0_3449_4110">
<rect width="54" height="22" fill="white"/>
</clipPath>
</defs>
</svg>
