<svg width="173" height="57" viewBox="0 0 173 57" fill="none" xmlns="http://www.w3.org/2000/svg">
<path d="M23.436 6.488L18.9 22H14.672L11.844 11.164L9.016 22H4.76L0.196 6.488H4.172L6.916 18.304L9.884 6.488H14.028L16.94 18.276L19.684 6.488H23.436ZM39.417 13.908C39.417 14.468 39.3797 14.972 39.305 15.42H27.965C28.0583 16.54 28.4503 17.4173 29.141 18.052C29.8317 18.6867 30.681 19.004 31.689 19.004C33.145 19.004 34.181 18.3787 34.797 17.128H39.025C38.577 18.6213 37.7183 19.8533 36.449 20.824C35.1797 21.776 33.621 22.252 31.773 22.252C30.2797 22.252 28.9357 21.9253 27.741 21.272C26.565 20.6 25.641 19.6573 24.969 18.444C24.3157 17.2307 23.989 15.8307 23.989 14.244C23.989 12.6387 24.3157 11.2293 24.969 10.016C25.6223 8.80267 26.537 7.86933 27.713 7.216C28.889 6.56267 30.2423 6.236 31.773 6.236C33.2477 6.236 34.5637 6.55333 35.721 7.188C36.897 7.82267 37.8023 8.728 38.437 9.904C39.0903 11.0613 39.417 12.396 39.417 13.908ZM35.357 12.788C35.3383 11.78 34.9743 10.9773 34.265 10.38C33.5557 9.764 32.6877 9.456 31.661 9.456C30.6903 9.456 29.869 9.75467 29.197 10.352C28.5437 10.9307 28.1423 11.7427 27.993 12.788H35.357ZM46.8221 14.244C46.8221 12.6387 47.1488 11.2387 47.8021 10.044C48.4555 8.83067 49.3608 7.89733 50.5181 7.244C51.6755 6.572 53.0008 6.236 54.4941 6.236C56.4168 6.236 58.0035 6.72133 59.2541 7.692C60.5235 8.644 61.3728 9.988 61.8021 11.724H57.5741C57.3501 11.052 56.9675 10.5293 56.4261 10.156C55.9035 9.764 55.2501 9.568 54.4661 9.568C53.3461 9.568 52.4595 9.97867 51.8061 10.8C51.1528 11.6027 50.8261 12.7507 50.8261 14.244C50.8261 15.7187 51.1528 16.8667 51.8061 17.688C52.4595 18.4907 53.3461 18.892 54.4661 18.892C56.0528 18.892 57.0888 18.1827 57.5741 16.764H61.8021C61.3728 18.444 60.5235 19.7787 59.2541 20.768C57.9848 21.7573 56.3981 22.252 54.4941 22.252C53.0008 22.252 51.6755 21.9253 50.5181 21.272C49.3608 20.6 48.4555 19.6667 47.8021 18.472C47.1488 17.2587 46.8221 15.8493 46.8221 14.244ZM63.1059 14.188C63.1059 12.62 63.4139 11.2293 64.0299 10.016C64.6645 8.80267 65.5139 7.86933 66.5779 7.216C67.6605 6.56267 68.8645 6.236 70.1899 6.236C71.3472 6.236 72.3552 6.46933 73.2139 6.936C74.0912 7.40267 74.7912 7.99067 75.3139 8.7V6.488H79.2619V22H75.3139V19.732C74.8099 20.46 74.1099 21.0667 73.2139 21.552C72.3365 22.0187 71.3192 22.252 70.1619 22.252C68.8552 22.252 67.6605 21.916 66.5779 21.244C65.5139 20.572 64.6645 19.6293 64.0299 18.416C63.4139 17.184 63.1059 15.7747 63.1059 14.188ZM75.3139 14.244C75.3139 13.292 75.1272 12.48 74.7539 11.808C74.3805 11.1173 73.8765 10.5947 73.2419 10.24C72.6072 9.86667 71.9259 9.68 71.1979 9.68C70.4699 9.68 69.7979 9.85733 69.1819 10.212C68.5659 10.5667 68.0619 11.0893 67.6699 11.78C67.2965 12.452 67.1099 13.2547 67.1099 14.188C67.1099 15.1213 67.2965 15.9427 67.6699 16.652C68.0619 17.3427 68.5659 17.8747 69.1819 18.248C69.8165 18.6213 70.4885 18.808 71.1979 18.808C71.9259 18.808 72.6072 18.6307 73.2419 18.276C73.8765 17.9027 74.3805 17.38 74.7539 16.708C75.1272 16.0173 75.3139 15.196 75.3139 14.244ZM86.4504 8.896C86.9544 8.07467 87.6078 7.43067 88.4104 6.964C89.2318 6.49733 90.1651 6.264 91.2104 6.264V10.38H90.1744C88.9424 10.38 88.0091 10.6693 87.3744 11.248C86.7584 11.8267 86.4504 12.8347 86.4504 14.272V22H82.5304V6.488H86.4504V8.896ZM107.711 13.908C107.711 14.468 107.673 14.972 107.599 15.42H96.2587C96.3521 16.54 96.7441 17.4173 97.4347 18.052C98.1254 18.6867 98.9747 19.004 99.9828 19.004C101.439 19.004 102.475 18.3787 103.091 17.128H107.319C106.871 18.6213 106.012 19.8533 104.743 20.824C103.473 21.776 101.915 22.252 100.067 22.252C98.5734 22.252 97.2294 21.9253 96.0347 21.272C94.8587 20.6 93.9347 19.6573 93.2627 18.444C92.6094 17.2307 92.2827 15.8307 92.2827 14.244C92.2827 12.6387 92.6094 11.2293 93.2627 10.016C93.9161 8.80267 94.8307 7.86933 96.0067 7.216C97.1827 6.56267 98.5361 6.236 100.067 6.236C101.541 6.236 102.857 6.55333 104.015 7.188C105.191 7.82267 106.096 8.728 106.731 9.904C107.384 11.0613 107.711 12.396 107.711 13.908ZM103.651 12.788C103.632 11.78 103.268 10.9773 102.559 10.38C101.849 9.764 100.981 9.456 99.9547 9.456C98.9841 9.456 98.1627 9.75467 97.4907 10.352C96.8374 10.9307 96.4361 11.7427 96.2867 12.788H103.651ZM123.236 9.708H120.52V22H116.544V9.708H114.78V6.488H116.544V5.704C116.544 3.8 117.085 2.4 118.168 1.504C119.251 0.607999 120.884 0.187999 123.068 0.244V3.548C122.116 3.52933 121.453 3.688 121.08 4.024C120.707 4.36 120.52 4.96667 120.52 5.844V6.488H123.236V9.708ZM132.104 22.252C130.611 22.252 129.267 21.9253 128.072 21.272C126.878 20.6 125.935 19.6573 125.244 18.444C124.572 17.2307 124.236 15.8307 124.236 14.244C124.236 12.6573 124.582 11.2573 125.272 10.044C125.982 8.83067 126.943 7.89733 128.156 7.244C129.37 6.572 130.723 6.236 132.216 6.236C133.71 6.236 135.063 6.572 136.276 7.244C137.49 7.89733 138.442 8.83067 139.132 10.044C139.842 11.2573 140.196 12.6573 140.196 14.244C140.196 15.8307 139.832 17.2307 139.104 18.444C138.395 19.6573 137.424 20.6 136.192 21.272C134.979 21.9253 133.616 22.252 132.104 22.252ZM132.104 18.836C132.814 18.836 133.476 18.668 134.092 18.332C134.727 17.9773 135.231 17.4547 135.604 16.764C135.978 16.0733 136.164 15.2333 136.164 14.244C136.164 12.7693 135.772 11.64 134.988 10.856C134.223 10.0533 133.28 9.652 132.16 9.652C131.04 9.652 130.098 10.0533 129.332 10.856C128.586 11.64 128.212 12.7693 128.212 14.244C128.212 15.7187 128.576 16.8573 129.304 17.66C130.051 18.444 130.984 18.836 132.104 18.836ZM146.432 8.896C146.936 8.07467 147.589 7.43067 148.392 6.964C149.213 6.49733 150.146 6.264 151.192 6.264V10.38H150.156C148.924 10.38 147.99 10.6693 147.356 11.248C146.74 11.8267 146.432 12.8347 146.432 14.272V22H142.512V6.488H146.432V8.896ZM5.852 42.756C6.356 42.0093 7.04667 41.4027 7.924 40.936C8.82 40.4693 9.83733 40.236 10.976 40.236C12.3013 40.236 13.496 40.5627 14.56 41.216C15.6427 41.8693 16.492 42.8027 17.108 44.016C17.7427 45.2107 18.06 46.6013 18.06 48.188C18.06 49.7747 17.7427 51.184 17.108 52.416C16.492 53.6293 15.6427 54.572 14.56 55.244C13.496 55.916 12.3013 56.252 10.976 56.252C9.81867 56.252 8.80133 56.028 7.924 55.58C7.06533 55.1133 6.37467 54.516 5.852 53.788V56H1.932V35.28H5.852V42.756ZM14.056 48.188C14.056 47.2547 13.86 46.452 13.468 45.78C13.0947 45.0893 12.5907 44.5667 11.956 44.212C11.34 43.8573 10.668 43.68 9.94 43.68C9.23067 43.68 8.55867 43.8667 7.924 44.24C7.308 44.5947 6.804 45.1173 6.412 45.808C6.03867 46.4987 5.852 47.3107 5.852 48.244C5.852 49.1773 6.03867 49.9893 6.412 50.68C6.804 51.3707 7.308 51.9027 7.924 52.276C8.55867 52.6307 9.23067 52.808 9.94 52.808C10.668 52.808 11.34 52.6213 11.956 52.248C12.5907 51.8747 13.0947 51.3427 13.468 50.652C13.86 49.9613 14.056 49.14 14.056 48.188ZM34.7686 47.908C34.7686 48.468 34.7312 48.972 34.6566 49.42H23.3166C23.4099 50.54 23.8019 51.4173 24.4926 52.052C25.1832 52.6867 26.0326 53.004 27.0406 53.004C28.4966 53.004 29.5326 52.3787 30.1486 51.128H34.3766C33.9286 52.6213 33.0699 53.8533 31.8006 54.824C30.5312 55.776 28.9726 56.252 27.1246 56.252C25.6312 56.252 24.2872 55.9253 23.0926 55.272C21.9166 54.6 20.9926 53.6573 20.3206 52.444C19.6672 51.2307 19.3406 49.8307 19.3406 48.244C19.3406 46.6387 19.6672 45.2293 20.3206 44.016C20.9739 42.8027 21.8886 41.8693 23.0646 41.216C24.2406 40.5627 25.5939 40.236 27.1246 40.236C28.5992 40.236 29.9152 40.5533 31.0726 41.188C32.2486 41.8227 33.1539 42.728 33.7886 43.904C34.4419 45.0613 34.7686 46.396 34.7686 47.908ZM30.7086 46.788C30.6899 45.78 30.3259 44.9773 29.6166 44.38C28.9072 43.764 28.0392 43.456 27.0126 43.456C26.0419 43.456 25.2206 43.7547 24.5486 44.352C23.8952 44.9307 23.4939 45.7427 23.3446 46.788H30.7086ZM41.6338 43.708V51.212C41.6338 51.7347 41.7551 52.1173 41.9978 52.36C42.2591 52.584 42.6885 52.696 43.2858 52.696H45.1058V56H42.6418C39.3378 56 37.6858 54.3947 37.6858 51.184V43.708H35.8378V40.488H37.6858V36.652H41.6338V40.488H45.1058V43.708H41.6338ZM51.9293 43.708V51.212C51.9293 51.7347 52.0506 52.1173 52.2933 52.36C52.5546 52.584 52.9839 52.696 53.5813 52.696H55.4013V56H52.9373C49.6333 56 47.9813 54.3947 47.9813 51.184V43.708H46.1333V40.488H47.9813V36.652H51.9293V40.488H55.4013V43.708H51.9293ZM72.0807 47.908C72.0807 48.468 72.0434 48.972 71.9687 49.42H60.6287C60.7221 50.54 61.1141 51.4173 61.8047 52.052C62.4954 52.6867 63.3447 53.004 64.3527 53.004C65.8087 53.004 66.8447 52.3787 67.4607 51.128H71.6887C71.2407 52.6213 70.3821 53.8533 69.1127 54.824C67.8434 55.776 66.2847 56.252 64.4367 56.252C62.9434 56.252 61.5994 55.9253 60.4047 55.272C59.2287 54.6 58.3047 53.6573 57.6327 52.444C56.9794 51.2307 56.6527 49.8307 56.6527 48.244C56.6527 46.6387 56.9794 45.2293 57.6327 44.016C58.2861 42.8027 59.2007 41.8693 60.3767 41.216C61.5527 40.5627 62.9061 40.236 64.4367 40.236C65.9114 40.236 67.2274 40.5533 68.3847 41.188C69.5607 41.8227 70.4661 42.728 71.1007 43.904C71.7541 45.0613 72.0807 46.396 72.0807 47.908ZM68.0207 46.788C68.0021 45.78 67.6381 44.9773 66.9287 44.38C66.2194 43.764 65.3514 43.456 64.3247 43.456C63.3541 43.456 62.5327 43.7547 61.8607 44.352C61.2074 44.9307 60.8061 45.7427 60.6567 46.788H68.0207ZM78.302 42.896C78.806 42.0747 79.4593 41.4307 80.262 40.964C81.0833 40.4973 82.0167 40.264 83.062 40.264V44.38H82.026C80.794 44.38 79.8607 44.6693 79.226 45.248C78.61 45.8267 78.302 46.8347 78.302 48.272V56H74.382V40.488H78.302V42.896ZM112.758 40.488L108.222 56H103.994L101.166 45.164L98.3382 56H94.0822L89.5182 40.488H93.4942L96.2382 52.304L99.2062 40.488H103.35L106.262 52.276L109.006 40.488H112.758ZM121.207 56.252C119.714 56.252 118.37 55.9253 117.175 55.272C115.981 54.6 115.038 53.6573 114.347 52.444C113.675 51.2307 113.339 49.8307 113.339 48.244C113.339 46.6573 113.685 45.2573 114.375 44.044C115.085 42.8307 116.046 41.8973 117.259 41.244C118.473 40.572 119.826 40.236 121.319 40.236C122.813 40.236 124.166 40.572 125.379 41.244C126.593 41.8973 127.545 42.8307 128.235 44.044C128.945 45.2573 129.299 46.6573 129.299 48.244C129.299 49.8307 128.935 51.2307 128.207 52.444C127.498 53.6573 126.527 54.6 125.295 55.272C124.082 55.9253 122.719 56.252 121.207 56.252ZM121.207 52.836C121.917 52.836 122.579 52.668 123.195 52.332C123.83 51.9773 124.334 51.4547 124.707 50.764C125.081 50.0733 125.267 49.2333 125.267 48.244C125.267 46.7693 124.875 45.64 124.091 44.856C123.326 44.0533 122.383 43.652 121.263 43.652C120.143 43.652 119.201 44.0533 118.435 44.856C117.689 45.64 117.315 46.7693 117.315 48.244C117.315 49.7187 117.679 50.8573 118.407 51.66C119.154 52.444 120.087 52.836 121.207 52.836ZM135.535 42.896C136.039 42.0747 136.692 41.4307 137.495 40.964C138.316 40.4973 139.249 40.264 140.295 40.264V44.38H139.259C138.027 44.38 137.093 44.6693 136.459 45.248C135.843 45.8267 135.535 46.8347 135.535 48.272V56H131.615V40.488H135.535V42.896ZM146.295 35.28V56H142.375V35.28H146.295ZM148.6 48.188C148.6 46.62 148.908 45.2293 149.524 44.016C150.159 42.8027 151.017 41.8693 152.1 41.216C153.183 40.5627 154.387 40.236 155.712 40.236C156.72 40.236 157.681 40.46 158.596 40.908C159.511 41.3373 160.239 41.916 160.78 42.644V35.28H164.756V56H160.78V53.704C160.295 54.4693 159.613 55.0853 158.736 55.552C157.859 56.0187 156.841 56.252 155.684 56.252C154.377 56.252 153.183 55.916 152.1 55.244C151.017 54.572 150.159 53.6293 149.524 52.416C148.908 51.184 148.6 49.7747 148.6 48.188ZM160.808 48.244C160.808 47.292 160.621 46.48 160.248 45.808C159.875 45.1173 159.371 44.5947 158.736 44.24C158.101 43.8667 157.42 43.68 156.692 43.68C155.964 43.68 155.292 43.8573 154.676 44.212C154.06 44.5667 153.556 45.0893 153.164 45.78C152.791 46.452 152.604 47.2547 152.604 48.188C152.604 49.1213 152.791 49.9427 153.164 50.652C153.556 51.3427 154.06 51.8747 154.676 52.248C155.311 52.6213 155.983 52.808 156.692 52.808C157.42 52.808 158.101 52.6307 158.736 52.276C159.371 51.9027 159.875 51.38 160.248 50.708C160.621 50.0173 160.808 49.196 160.808 48.244ZM169.76 56.196C169.051 56.196 168.463 55.9813 167.996 55.552C167.548 55.104 167.324 54.5533 167.324 53.9C167.324 53.2467 167.548 52.7053 167.996 52.276C168.463 51.828 169.051 51.604 169.76 51.604C170.451 51.604 171.02 51.828 171.468 52.276C171.916 52.7053 172.14 53.2467 172.14 53.9C172.14 54.5533 171.916 55.104 171.468 55.552C171.02 55.9813 170.451 56.196 169.76 56.196Z" fill="#222222"/>
</svg>
