<svg width="20" height="18" viewBox="0 0 20 18" fill="none" xmlns="http://www.w3.org/2000/svg">
<path fill-rule="evenodd" clip-rule="evenodd" d="M5.19382 1.83152C5.59577 1.10099 6.03303 0.612646 6.68188 0.35439C7.87089 -0.11839 12.1293 -0.11839 13.3174 0.354485C13.9659 0.612601 14.4033 1.10086 14.8055 1.83124L15.2578 2.69839C15.2681 2.71557 15.2776 2.73068 15.2862 2.74368L15.3246 2.79619C15.5306 3.02069 15.8754 3.15632 16.103 3.15632C18.255 3.15632 20 4.90091 20 7.05232V12.8473C20 15.5915 17.7742 17.8173 15.03 17.8173H4.97C2.2251 17.8173 0 15.5918 0 12.8473V7.05232C0 4.90091 1.74498 3.15632 3.897 3.15632C4.12377 3.15632 4.46908 3.02049 4.67544 2.79619C4.67956 2.7917 4.68494 2.78501 4.69145 2.77615L4.74287 2.69727L5.19382 1.83152ZM13.4917 2.5549C13.2417 2.10106 13.0158 1.84891 12.7626 1.74815L12.6433 1.70848C11.6142 1.4176 8.03441 1.43082 7.23635 1.74815C6.98334 1.84886 6.75768 2.10087 6.50802 2.55462L6.12316 3.29872L6.02843 3.47015C5.94936 3.60168 5.87026 3.7127 5.77995 3.81111C5.27349 4.36161 4.52425 4.65632 3.897 4.65632L3.7329 4.66185C2.48575 4.74618 1.5 5.78453 1.5 7.05232V12.8473C1.5 14.7635 3.05359 16.3173 4.97 16.3173H15.03C16.9458 16.3173 18.5 14.7631 18.5 12.8473V7.05232C18.5 5.72941 17.4267 4.65632 16.103 4.65632L15.9289 4.64904C15.3403 4.60061 14.6793 4.31148 14.2194 3.81044C14.1303 3.71334 14.0517 3.6031 13.9731 3.47269C13.9618 3.45398 13.9478 3.42935 13.9317 3.4002L13.8156 3.18246L13.4917 2.5549Z" fill="#B1B1B1"/>
<path d="M15.5041 5.5C16.0564 5.5 16.5041 5.94772 16.5041 6.5C16.5041 7.01284 16.1181 7.43551 15.6207 7.49327L15.5041 7.5C14.9428 7.5 14.4951 7.05228 14.4951 6.5C14.4951 5.98716 14.8812 5.56449 15.3785 5.50673L15.5041 5.5Z" fill="#B1B1B1"/>
<path fill-rule="evenodd" clip-rule="evenodd" d="M6.0708 10.128C6.0708 7.95782 7.82959 6.19904 9.9998 6.19904C12.17 6.19904 13.9288 7.95782 13.9288 10.128C13.9288 12.2982 12.17 14.057 9.9998 14.057C7.82959 14.057 6.0708 12.2982 6.0708 10.128ZM12.4288 10.128C12.4288 8.78625 11.3416 7.69904 9.9998 7.69904C8.65801 7.69904 7.5708 8.78625 7.5708 10.128C7.5708 11.4698 8.65801 12.557 9.9998 12.557C11.3416 12.557 12.4288 11.4698 12.4288 10.128Z" fill="#B1B1B1"/>
</svg>
