<svg width="24" height="24" viewBox="0 0 24 24" fill="none" xmlns="http://www.w3.org/2000/svg">
<circle cx="19" cy="12" r="3" fill="#222222"/>
<path d="M5 14.6471V20.4968C5 20.7736 5.18605 21 5.41344 21H7.11886C7.30491 21 7.45995 20.8491 7.51163 20.6478L9 14.6597H5V14.6471Z" fill="#222222"/>
<path d="M4.04997 8.55884H9.84997V15.2506H4.04997C3.58997 15.2506 3.21997 14.8588 3.21997 14.3718V9.43766C3.21997 8.9506 3.58997 8.55884 4.04997 8.55884Z" fill="#FE5555"/>
<path d="M2.29 9.74472H3.23V14.0647H2.29C2.13 14.0647 2 13.9271 2 13.7577V10.0412C2 9.87178 2.13 9.73413 2.29 9.73413V9.74472Z" fill="#222222"/>
<path d="M9.84998 8.55879L19.03 3.67761V20.1953L9.84998 15.2506V8.55879Z" fill="#F9D7D7"/>
<path d="M20 3.68287C20 3.30573 19.5523 3 19 3C18.4477 3 18 3.30573 18 3.68287V20.3171C18 20.6943 18.4477 21 19 21C19.5523 21 20 20.6943 20 20.3171V3.68287Z" fill="#FE5555"/>
</svg>
