<svg width="24" height="24" viewBox="0 0 24 24" fill="none" xmlns="http://www.w3.org/2000/svg">
<path d="M2.25 8.25V8.28094C2.24889 8.4742 2.17911 8.66078 2.05312 8.80734V8.80969C1.8 9.10875 1.5 9.64406 1.5 10.5C1.5 11.2758 1.74844 11.8233 2.0475 12.1833C2.17871 12.343 2.2503 12.5433 2.25 12.75V12.75C2.25 13.1478 2.40804 13.5294 2.68934 13.8107C2.97064 14.092 3.35218 14.25 3.75 14.25H4.125C4.22446 14.25 4.31984 14.2105 4.39016 14.1402C4.46049 14.0698 4.5 13.9745 4.5 13.875V7.125C4.5 7.02554 4.46049 6.93016 4.39016 6.85983C4.31984 6.78951 4.22446 6.75 4.125 6.75H3.75C3.35218 6.75 2.97064 6.90804 2.68934 7.18934C2.40804 7.47064 2.25 7.85218 2.25 8.25V8.25Z" fill="#222222"/>
<path d="M21.1959 8.7445L21.1523 8.73653C21.1095 8.72835 21.0708 8.70547 21.043 8.67185C21.0152 8.63822 21 8.59595 21 8.55231V2.90622C21 2.31372 20.6067 1.78122 20.0208 1.57872C19.462 1.38606 18.8798 1.5431 18.5358 1.97856C17.8038 2.85261 16.9992 3.66315 16.1306 4.40153C15.023 5.33903 13.9631 6.007 12.99 6.38481C12.919 6.41187 12.858 6.45983 12.8149 6.52236C12.7718 6.58488 12.7486 6.65902 12.7486 6.73497V14.0156C12.7487 14.1622 12.7918 14.3056 12.8725 14.4279C12.9533 14.5503 13.0681 14.6464 13.2028 14.7042C14.1094 15.0928 15.0891 15.7275 16.1091 16.5923C16.9842 17.3374 17.7946 18.1553 18.5316 19.0373C18.6496 19.1854 18.8003 19.3042 18.9719 19.3845C19.1435 19.4648 19.3313 19.5043 19.5206 19.5C19.6871 19.4992 19.8523 19.4717 20.01 19.4184C20.6114 19.2187 21 18.7054 21 18.1125V12.4467C21 12.4024 21.0157 12.3596 21.0443 12.3258C21.0729 12.292 21.1125 12.2694 21.1561 12.262L21.1959 12.2554C21.6469 12.1331 22.5 11.6095 22.5 10.5C22.5 9.39044 21.6469 8.86684 21.1959 8.7445Z" fill="#222222"/>
<rect x="6" y="6.69922" width="5" height="16" rx="1" fill="#222222"/>
</svg>
