<svg width="66" height="28" viewBox="0 0 66 28" fill="none" xmlns="http://www.w3.org/2000/svg">
<g clip-path="url(#clip0_3398_25396)">
<path d="M11.715 12.8119H13.9112V17.0976H16.4814V5.94788H13.9112V10.2349H11.715V5.94788H9.14478V17.0976H11.715V12.8119Z" fill="#222222"/>
<path d="M12.9589 20.3512C10.8552 20.3512 9.14478 22.0662 9.14478 24.1756C9.14478 26.2849 10.8552 28 12.9589 28C15.0626 28 16.7731 26.2849 16.7731 24.1756C16.7731 22.0662 15.0626 20.3512 12.9589 20.3512ZM14.2029 24.1756C14.2029 24.8637 13.6452 25.4229 12.9589 25.4229C12.2727 25.4229 11.715 24.8637 11.715 24.1756C11.715 23.4875 12.2727 22.9283 12.9589 22.9283C13.6452 22.9283 14.2029 23.4875 14.2029 24.1756Z" fill="#222222"/>
<path d="M25.5413 6.2636V6.52131H28.1115V6.2636C28.1115 2.81031 25.31 0 21.8647 0H21.6077V2.57708H21.8647C23.8913 2.57708 25.5413 4.23028 25.5413 6.2636Z" fill="#222222"/>
<path d="M31.5594 7.55859H21.1232V10.1357H31.5594V7.55859Z" fill="#222222"/>
<path d="M24.3795 19.7263H27.8596V12.0801H21.6076V14.6572H25.2894V17.1492H21.578V18.4377C21.578 21.891 24.3795 24.7013 27.8249 24.7013H28.0819V22.1243H27.8249C26.2827 22.1243 24.9115 21.154 24.3808 19.7263H24.3795Z" fill="#222222"/>
<path d="M46.1543 12.8119H48.3518V17.0976H50.922V5.94788H48.3518V10.2349H46.1543V5.94788H43.5841V17.0976H46.1543V12.8119Z" fill="#222222"/>
<path d="M47.3983 20.3512C45.2946 20.3512 43.5841 22.0662 43.5841 24.1756C43.5841 26.2849 45.2946 28 47.3983 28C49.502 28 51.2124 26.2849 51.2124 24.1756C51.2124 22.0662 49.502 20.3512 47.3983 20.3512ZM48.6422 24.1756C48.6422 24.8637 48.0845 25.4229 47.3983 25.4229C46.712 25.4229 46.1543 24.8637 46.1543 24.1756C46.1543 23.4875 46.712 22.9283 47.3983 22.9283C48.0845 22.9283 48.6422 23.4875 48.6422 24.1756Z" fill="#222222"/>
<path d="M59.9806 6.2636V6.52131H62.5507V6.2636C62.5507 2.81031 59.7492 0 56.3039 0H56.0469V2.57708H56.3039C58.3305 2.57708 59.9806 4.23028 59.9806 6.2636Z" fill="#222222"/>
<path d="M66 7.55859H55.5637V10.1357H66V7.55859Z" fill="#222222"/>
<path d="M58.8188 19.7263H62.2989V12.0801H56.0469V14.6572H59.7287V17.1492H56.0173V18.4377C56.0173 21.891 58.8188 24.7013 62.2642 24.7013H62.5212V22.1243H62.2642C60.7221 22.1243 59.3509 21.154 58.8201 19.7263H58.8188Z" fill="#222222"/>
<path d="M2.52136 11.1781V10.1099H6.15433V7.58179H0V11.1781C0 14.21 2.68971 16.6776 5.99626 16.6776H6.25328V14.1495H5.99626C4.08018 14.1495 2.52136 12.8171 2.52136 11.1781Z" fill="#222222"/>
<path d="M37.0018 11.1781V10.1099H40.6348V7.58179H34.4805V11.1781C34.4805 14.21 37.1702 16.6776 40.4767 16.6776H40.7337V14.1495H40.4767C38.5607 14.1495 37.0018 12.8171 37.0018 11.1781Z" fill="#222222"/>
</g>
<defs>
<clipPath id="clip0_3398_25396">
<rect width="66" height="28" fill="white"/>
</clipPath>
</defs>
</svg>
