<svg width="24" height="24" viewBox="0 0 24 24" fill="none" xmlns="http://www.w3.org/2000/svg">
<path fill-rule="evenodd" clip-rule="evenodd" d="M4.5 21.75H19.5C20.0965 21.7494 20.6685 21.5121 21.0903 21.0903C21.5121 20.6685 21.7494 20.0965 21.75 19.5V4.5C21.7494 3.90345 21.5121 3.33152 21.0903 2.9097C20.6685 2.48787 20.0965 2.25062 19.5 2.25H4.5C3.90345 2.25062 3.33152 2.48787 2.9097 2.9097C2.48787 3.33152 2.25062 3.90345 2.25 4.5V19.5C2.25062 20.0965 2.48787 20.6685 2.9097 21.0903C3.33152 21.5121 3.90345 21.7494 4.5 21.75ZM16.6476 11.526C16.9476 10.962 17.0976 10.362 17.0976 9.726C17.0976 9.03 16.9296 8.4 16.5936 7.836C16.2696 7.272 15.7716 6.828 15.0996 6.504C14.4396 6.168 13.6296 6 12.6696 6H8.34961V18.51H10.4016V13.434H12.6696C13.7016 13.434 14.5476 13.26 15.2076 12.912C15.8676 12.552 16.3476 12.09 16.6476 11.526ZM14.4156 11.238C14.0316 11.586 13.4496 11.76 12.6696 11.76H10.4016V7.674H12.6696C14.2176 7.674 14.9916 8.358 14.9916 9.726C14.9916 10.374 14.7996 10.878 14.4156 11.238Z" fill="#222222"/>
</svg>
