<svg width="24" height="24" viewBox="0 0 24 24" fill="none" xmlns="http://www.w3.org/2000/svg">
<path d="M12 22C17.5229 22 22 17.5228 22 12C22 6.47715 17.5229 2 12 2C6.47716 2 2 6.47715 2 12C2 17.5228 6.47716 22 12 22Z" fill="#FE5555"/>
<path d="M12 19.8947C16.3601 19.8947 19.8947 16.3601 19.8947 12C19.8947 7.63982 16.3601 4.10522 12 4.10522C7.63985 4.10522 4.10526 7.63982 4.10526 12C4.10526 16.3601 7.63985 19.8947 12 19.8947Z" fill="white"/>
<path d="M15.6842 10.6021V10.969C15.6842 12.2204 14.6047 13.2554 13.2325 13.2554H10.9524V16.7367H9.36841V8.31567H13.2325C14.5946 8.31567 15.6842 9.34125 15.6842 10.6021ZM10.9625 9.79289V11.7782H12.9702C13.7269 11.7782 14.0598 11.4018 14.0598 10.7902C14.0598 10.1787 13.7067 9.79289 12.9702 9.79289H10.9625Z" fill="#222222" stroke="#222222" stroke-width="0.27" stroke-miterlimit="10"/>
</svg>
