<svg width="24" height="24" viewBox="0 0 24 24" fill="none" xmlns="http://www.w3.org/2000/svg">
<path d="M18.2244 21.9998C17.3964 21.9998 16.2332 21.7004 14.4915 20.7275C12.3735 19.54 10.7353 18.4437 8.6287 16.343C6.59766 14.3136 5.60929 12.9997 4.226 10.4831C2.66327 7.64152 2.92966 6.15203 3.22744 5.51544C3.58207 4.75458 4.10553 4.29951 4.78211 3.84783C5.16641 3.59609 5.5731 3.3803 5.99701 3.20318C6.03943 3.18494 6.07888 3.16755 6.11408 3.15186C6.32406 3.05729 6.6422 2.91436 7.04519 3.06704C7.31413 3.16798 7.55422 3.37452 7.93006 3.74562C8.70082 4.50563 9.75409 6.19826 10.1427 7.02952C10.4035 7.58977 10.5762 7.9596 10.5766 8.37438C10.5766 8.85999 10.3323 9.23448 10.0358 9.63866C9.98019 9.71458 9.92504 9.7871 9.87159 9.8575C9.54878 10.2816 9.47794 10.4042 9.5246 10.623C9.6192 11.0628 10.3246 12.3721 11.484 13.5286C12.6433 14.6852 13.915 15.3459 14.3566 15.4401C14.5848 15.4889 14.7099 15.4151 15.1477 15.0809C15.2105 15.0329 15.275 14.9833 15.3424 14.9337C15.7946 14.5974 16.1518 14.3595 16.626 14.3595H16.6286C17.0413 14.3595 17.3947 14.5384 17.9801 14.8336C18.7436 15.2187 20.4875 16.2582 21.2523 17.0297C21.6243 17.4046 21.8317 17.6438 21.9331 17.9122C22.0858 18.3164 21.942 18.6332 21.8483 18.8453C21.8326 18.8805 21.8152 18.9191 21.797 18.9619C21.6184 19.385 21.4013 19.7907 21.1484 20.174C20.6974 20.8484 20.2406 21.3705 19.4779 21.7254C19.0862 21.9106 18.6576 22.0045 18.2244 21.9998Z" fill="#222222"/>
</svg>
