<svg width="24" height="24" viewBox="0 0 24 24" fill="none" xmlns="http://www.w3.org/2000/svg">
<g clip-path="url(#clip0_3330_22558)">
<path fill-rule="evenodd" clip-rule="evenodd" d="M16.3025 2H19.6975C21.5214 2 23 3.567 23 5.5C23 7.433 21.5214 9 19.6975 9H16.3025C16.2964 9 16.2903 8.99998 16.2842 8.99995H13V5.5C13 5.49998 13 5.49996 13 5.49995C13 3.56697 14.4786 2 16.3025 2Z" fill="#F9D7D7"/>
<path d="M7.7076 11.6316L10.2184 9.1198C10.6653 8.67276 10.6653 7.94125 10.2184 7.49422L7.06075 4.33528C6.6139 3.88824 5.88268 3.88824 5.43583 4.33528L3.34217 6.43134C3.02031 6.75333 3 7.31134 3 7.31134C3.47185 15.5924 8.42163 20.5348 16.7041 20.999C17.0165 21.0115 17.3322 20.9021 17.5696 20.6645L19.6649 18.5685C20.1117 18.1214 20.1117 17.3899 19.6649 16.9429L16.5072 13.784C16.0603 13.3369 15.3291 13.3369 14.8823 13.784L12.3714 16.2958C10.4918 15.1047 8.89973 13.512 7.70916 11.6316H7.7076Z" fill="#FE5555"/>
<path d="M15.55 6.5C15.9642 6.5 16.3 6.16421 16.3 5.75C16.3 5.33579 15.9642 5 15.55 5C15.1358 5 14.8 5.33579 14.8 5.75C14.8 6.16421 15.1358 6.5 15.55 6.5Z" fill="#222222"/>
<path d="M18.05 6.5C18.4642 6.5 18.8 6.16421 18.8 5.75C18.8 5.33579 18.4642 5 18.05 5C17.6358 5 17.3 5.33579 17.3 5.75C17.3 6.16421 17.6358 6.5 18.05 6.5Z" fill="#222222"/>
<path d="M20.55 6.5C20.9642 6.5 21.3 6.16421 21.3 5.75C21.3 5.33579 20.9642 5 20.55 5C20.1358 5 19.8 5.33579 19.8 5.75C19.8 6.16421 20.1358 6.5 20.55 6.5Z" fill="#222222"/>
</g>
<defs>
<clipPath id="clip0_3330_22558">
<rect width="20" height="19" fill="white" transform="translate(3 2)"/>
</clipPath>
</defs>
</svg>
