<svg width="24" height="24" viewBox="0 0 24 24" fill="none" xmlns="http://www.w3.org/2000/svg">
<mask id="mask0_3178_770" style="mask-type:luminance" maskUnits="userSpaceOnUse" x="4" y="14" width="16" height="8">
<path fill-rule="evenodd" clip-rule="evenodd" d="M4.39917 14.4492H19.5455V21.5003H4.39917V14.4492Z" fill="white"/>
</mask>
<g mask="url(#mask0_3178_770)">
<path fill-rule="evenodd" clip-rule="evenodd" d="M11.9736 15.8828C7.89917 15.8828 5.83374 16.5828 5.83374 17.9645C5.83374 19.3587 7.89917 20.0653 11.9736 20.0653C16.0471 20.0653 18.1115 19.3653 18.1115 17.9836C18.1115 16.5895 16.0471 15.8828 11.9736 15.8828ZM11.9734 21.5003C10.1001 21.5003 4.39917 21.5003 4.39917 17.9652C4.39917 14.8135 8.72222 14.4492 11.9734 14.4492C13.8466 14.4492 19.5456 14.4492 19.5456 17.9843C19.5456 21.136 15.2235 21.5003 11.9734 21.5003Z" fill="#464646"/>
</g>
<mask id="mask1_3178_770" style="mask-type:luminance" maskUnits="userSpaceOnUse" x="6" y="2" width="12" height="11">
<path fill-rule="evenodd" clip-rule="evenodd" d="M6.89526 2.5H17.0503V12.6537H6.89526V2.5Z" fill="white"/>
</mask>
<g mask="url(#mask1_3178_770)">
<path fill-rule="evenodd" clip-rule="evenodd" d="M11.9735 3.86719C9.92625 3.86719 8.26052 5.53196 8.26052 7.57922C8.25382 9.61978 9.90712 11.2836 11.9458 11.2912L11.9735 11.974V11.2912C14.0198 11.2912 15.6846 9.62552 15.6846 7.57922C15.6846 5.53196 14.0198 3.86719 11.9735 3.86719ZM11.9738 12.6541H11.9432C9.14909 12.6454 6.88573 10.3668 6.89529 7.57464C6.89529 4.77771 9.173 2.5 11.9738 2.5C14.7736 2.5 17.0503 4.7777 17.0503 7.5775C17.0503 10.3773 14.7736 12.6541 11.9738 12.6541Z" fill="#464646"/>
</g>
</svg>
