<svg width="20" height="20" viewBox="0 0 20 20" fill="none" xmlns="http://www.w3.org/2000/svg">
<path d="M10 20C15.5228 20 20 15.5228 20 10C20 4.47715 15.5228 0 10 0C4.47715 0 0 4.47715 0 10C0 15.5228 4.47715 20 10 20Z" fill="#FE7765"/>
<path d="M9.61389 3.69343C7.16675 3.8411 5.87989 5.23344 5.77441 7.74387H8.24265C8.26374 6.87893 8.77005 6.22496 9.65608 6.11948C10.5421 6.03509 11.386 6.24605 11.6391 6.83674C11.9134 7.49072 11.3016 8.25017 11.0062 8.56661C10.4577 9.1573 9.5717 9.60032 9.10759 10.2332C8.66457 10.8661 8.58019 11.6888 8.53799 12.7014H10.7109C10.732 12.0475 10.7742 11.4357 11.0695 11.0348C11.5547 10.3809 12.272 10.0855 12.8627 9.55813C13.4323 9.07292 14.0441 8.48223 14.1284 7.55401C14.4871 4.83262 12.2509 3.52466 9.61389 3.69343Z" fill="#F2F1ED"/>
<path d="M9.67715 16.3297C10.4345 16.3297 11.0484 15.7252 11.0484 14.9795C11.0484 14.2339 10.4345 13.6294 9.67715 13.6294C8.91983 13.6294 8.30591 14.2339 8.30591 14.9795C8.30591 15.7252 8.91983 16.3297 9.67715 16.3297Z" fill="#F2F1ED"/>
</svg>
