<svg width="80" height="80" viewBox="0 0 80 80" fill="none" xmlns="http://www.w3.org/2000/svg">
<mask id="mask0_4284_34457" style="mask-type:alpha" maskUnits="userSpaceOnUse" x="0" y="0" width="80" height="80">
<circle cx="40" cy="40" r="40" fill="#F9D7D7"/>
</mask>
<g mask="url(#mask0_4284_34457)">
<circle cx="40" cy="40" r="40" fill="#F9D7D7"/>
</g>
<g clip-path="url(#clip0_4284_34457)">
<path d="M64.3799 35.7954C64.3796 35.7656 64.3794 35.7449 64.3793 35.7151C64.357 28.2599 58.7952 22.2224 51.9373 22.2224C46.4991 22.2224 41.8789 24.4989 40.1879 29.6718C40.1314 29.8446 39.8668 29.8446 39.8104 29.6718C38.1193 24.4989 33.4991 22.2224 28.0609 22.2224C21.203 22.2224 15.6412 28.2599 15.6189 35.7151C15.6189 35.7449 15.6186 35.7656 15.6184 35.7954C15.6105 36.6675 15.7244 53.4667 35.9502 63.8959C38.4859 65.2034 41.5123 65.2034 44.048 63.8959C64.2738 53.4667 64.3878 36.6675 64.3799 35.7954Z" fill="#FE5555"/>
<path d="M48.3927 42.8003H41.8716V36.3127C41.8716 35.7083 41.3731 35.2124 40.7656 35.2124H39.2351C38.6275 35.2124 38.1291 35.7083 38.1291 36.3127V42.8003H31.608C31.0004 42.8003 30.502 43.2963 30.502 43.9007V45.4233C30.502 46.0277 31.0004 46.5236 31.608 46.5236H38.1291V53.0112C38.1291 53.6156 38.6275 54.1115 39.2351 54.1115H40.7656C41.3731 54.1115 41.8716 53.6156 41.8716 53.0112V46.5236H48.3927C49.0002 46.5236 49.4987 46.0277 49.4987 45.4233V43.9007C49.4987 43.2963 49.0002 42.8003 48.3927 42.8003Z" fill="white"/>
</g>
<defs>
<clipPath id="clip0_4284_34457">
<rect width="53.3333" height="43.5556" fill="white" transform="translate(13.333 22.2224)"/>
</clipPath>
</defs>
</svg>
