<svg width="80" height="80" viewBox="0 0 80 80" fill="none" xmlns="http://www.w3.org/2000/svg">
<mask id="mask0_4284_34434" style="mask-type:alpha" maskUnits="userSpaceOnUse" x="0" y="0" width="80" height="80">
<circle cx="40" cy="40" r="40" fill="#F9D7D7"/>
</mask>
<g mask="url(#mask0_4284_34434)">
<circle cx="40" cy="40" r="40" fill="#F9D7D7"/>
</g>
<g clip-path="url(#clip0_4284_34434)">
<path d="M21.8431 36.2714L34.3514 36.4307L34.1957 50.0345L21.6874 49.8752C20.7022 49.8627 19.9124 49.0552 19.9237 48.0719L20.0387 38.026C20.05 37.0427 20.8579 36.2555 21.8431 36.2681L21.8431 36.2714Z" fill="#FE5555"/>
<path d="M18.0152 38.636L20.0389 38.6618L19.9384 47.4386L17.9147 47.4129C17.5752 47.4085 17.3021 47.1293 17.306 46.7905L17.3924 39.2428C17.3963 38.9039 17.6757 38.6317 18.0152 38.636Z" fill="#EA3E3E"/>
<path d="M56.7746 46.9355L56.8528 40.1053C58.3074 40.1239 59.4788 41.3183 59.4621 42.7733L59.4442 44.338C59.4276 45.7898 58.2325 46.9574 56.7746 46.9388L56.7746 46.9355Z" fill="#EA3E3E"/>
<path d="M23.8651 49.9048L23.7516 59.9067C23.7449 60.3817 24.1284 60.7708 24.6044 60.7781L28.1613 60.8236C28.5404 60.8282 28.8784 60.5865 28.9923 60.2254L32.2236 50.0121L23.8682 49.9058L23.8651 49.9048Z" fill="#EA3E3E"/>
<path d="M57.0017 26.7881C57.0103 26.0304 56.4019 25.4083 55.6427 25.3986C54.8835 25.3889 54.261 25.9954 54.2524 26.7531L53.8681 60.3258C53.8594 61.0835 54.4678 61.7056 55.227 61.7153C55.9862 61.7249 56.6087 61.1185 56.6174 60.3608L57.0017 26.7881Z" fill="#FE5555"/>
<path d="M34.3524 36.4315L54.2555 26.753L53.8715 60.3287L34.199 50.036L34.3524 36.4315Z" fill="white"/>
<path d="M34.8002 29.2359C39.2922 29.2359 42.9338 25.8749 42.9338 21.729C42.9338 17.5831 39.2922 14.2222 34.8002 14.2222C30.3081 14.2222 26.6665 17.5831 26.6665 21.729C26.6665 25.8749 30.3081 29.2359 34.8002 29.2359Z" fill="#FE5555"/>
<path d="M30.9413 30.92C31.7303 30.3187 33.5848 28.9104 33.5848 28.9104L30.2388 27.3691L30.5517 30.7505C30.5684 30.9399 30.7881 31.0362 30.9413 30.92Z" fill="#FE5555"/>
<path d="M31.9543 22.4531C32.3552 22.4531 32.6801 22.1289 32.6801 21.729C32.6801 21.3291 32.3552 21.0049 31.9543 21.0049C31.5535 21.0049 31.2285 21.3291 31.2285 21.729C31.2285 22.1289 31.5535 22.4531 31.9543 22.4531Z" fill="white"/>
<path d="M34.8005 22.4531C35.2014 22.4531 35.5263 22.1289 35.5263 21.729C35.5263 21.3291 35.2014 21.0049 34.8005 21.0049C34.3997 21.0049 34.0747 21.3291 34.0747 21.729C34.0747 22.1289 34.3997 22.4531 34.8005 22.4531Z" fill="white"/>
<path d="M37.6467 22.4531C38.0476 22.4531 38.3725 22.1289 38.3725 21.729C38.3725 21.3291 38.0476 21.0049 37.6467 21.0049C37.2459 21.0049 36.9209 21.3291 36.9209 21.729C36.9209 22.1289 37.2459 22.4531 37.6467 22.4531Z" fill="white"/>
</g>
<defs>
<clipPath id="clip0_4284_34434">
<rect width="54.2222" height="55.1111" fill="white" transform="translate(11.5557 11.5557)"/>
</clipPath>
</defs>
</svg>
