<svg width="80" height="80" viewBox="0 0 80 80" fill="none" xmlns="http://www.w3.org/2000/svg">
<mask id="mask0_4284_34403" style="mask-type:alpha" maskUnits="userSpaceOnUse" x="0" y="0" width="80" height="80">
<circle cx="40" cy="40" r="40" fill="#F9D7D7"/>
</mask>
<g mask="url(#mask0_4284_34403)">
<circle cx="40" cy="40" r="40" fill="#F9D7D7"/>
<path d="M16 27.951C16 21.3507 21.3507 16 27.951 16H52.049C58.6493 16 64 21.3507 64 27.951V52.049C64 58.6493 58.6493 64 52.049 64H27.951C21.3507 64 16 58.6493 16 52.049V27.951Z" fill="#FE5555"/>
<path fill-rule="evenodd" clip-rule="evenodd" d="M45.93 25.7112H34.0712C29.4544 25.7112 25.7117 29.4539 25.7117 34.0707V45.9296C25.7117 50.5464 29.4544 54.2891 34.0712 54.2891H45.93C50.5469 54.2891 54.2895 50.5464 54.2895 45.9296V34.0707C54.2895 29.4539 50.5469 25.7112 45.93 25.7112ZM34.0712 22.2119C27.5218 22.2119 22.2124 27.5213 22.2124 34.0707V45.9296C22.2124 52.479 27.5218 57.7884 34.0712 57.7884H45.93C52.4795 57.7884 57.7889 52.479 57.7889 45.9296V34.0707C57.7889 27.5213 52.4795 22.2119 45.93 22.2119H34.0712Z" fill="white"/>
<path fill-rule="evenodd" clip-rule="evenodd" d="M39.9998 46.1114C43.3751 46.1114 46.1114 43.3751 46.1114 39.9998C46.1114 36.6244 43.3751 33.8882 39.9998 33.8882C36.6244 33.8882 33.8882 36.6244 33.8882 39.9998C33.8882 43.3751 36.6244 46.1114 39.9998 46.1114ZM39.9998 49.3174C45.1458 49.3174 49.3174 45.1458 49.3174 39.9998C49.3174 34.8538 45.1458 30.6821 39.9998 30.6821C34.8538 30.6821 30.6821 34.8538 30.6821 39.9998C30.6821 45.1458 34.8538 49.3174 39.9998 49.3174Z" fill="white"/>
<path d="M51.0115 30.6822C51.0115 31.9297 50.1266 32.941 49.0351 32.941C47.9435 32.941 47.0586 31.9297 47.0586 30.6822C47.0586 29.4346 47.9435 28.4233 49.0351 28.4233C50.1266 28.4233 51.0115 29.4346 51.0115 30.6822Z" fill="white"/>
</g>
</svg>
