<svg width="80" height="80" viewBox="0 0 80 80" fill="none" xmlns="http://www.w3.org/2000/svg">
<mask id="mask0_4284_34418" style="mask-type:alpha" maskUnits="userSpaceOnUse" x="0" y="0" width="80" height="80">
<circle cx="40" cy="40" r="40" fill="#F9D7D7"/>
</mask>
<g mask="url(#mask0_4284_34418)">
<circle cx="40" cy="40" r="40" fill="#F9D7D7"/>
</g>
<g clip-path="url(#clip0_4284_34418)">
<path d="M40.0018 65.7815C54.2396 65.7815 65.7815 54.2396 65.7815 40.0018C65.7815 25.7641 54.2396 14.2222 40.0018 14.2222C25.7641 14.2222 14.2222 25.7641 14.2222 40.0018C14.2222 54.2396 25.7641 65.7815 40.0018 65.7815Z" fill="#FE5555"/>
<path d="M40.0017 60.9888C51.5925 60.9888 60.9888 51.5925 60.9888 40.0017C60.9888 28.4109 51.5925 19.0146 40.0017 19.0146C28.4109 19.0146 19.0146 28.4109 19.0146 40.0017C19.0146 51.5925 28.4109 60.9888 40.0017 60.9888Z" fill="#EA3E3E"/>
<path d="M28.4448 32.9812H31.3189L33.8228 42.6835C34.1627 44.2886 34.5026 45.8031 34.8123 47.3817H34.9672C35.3373 45.8068 35.6772 44.2622 36.1115 42.6835L38.7061 32.9812H41.4555L44.0803 42.6835C44.4806 44.2886 44.8545 45.8031 45.2549 47.3817H45.3795C45.7496 45.8068 46.0593 44.2924 46.4294 42.6835L48.8994 32.9812H51.5582L47.045 49.761H43.646L41.2063 40.7083C40.7719 39.1334 40.466 37.5888 40.0619 35.8893H39.9071C39.537 37.5888 39.1971 39.1636 38.7627 40.7725L36.4136 49.7648H33.109L28.4448 32.985V32.9812Z" fill="white"/>
<path d="M53.8053 37.4717H26.1978V39.36H53.8053V37.4717Z" fill="white"/>
<path d="M53.8053 41.7959H26.1978V43.6842H53.8053V41.7959Z" fill="white"/>
</g>
<defs>
<clipPath id="clip0_4284_34418">
<rect width="51.5556" height="51.5556" fill="white" transform="translate(14.2222 14.2222)"/>
</clipPath>
</defs>
</svg>
