<svg width="24" height="24" viewBox="0 0 24 24" fill="none" xmlns="http://www.w3.org/2000/svg">
<mask id="mask0_782_2852" style="mask-type:luminance" maskUnits="userSpaceOnUse" x="2" y="2" width="20" height="20">
<path fill-rule="evenodd" clip-rule="evenodd" d="M2 2H21.4768V21.477H2V2Z" fill="white"/>
</mask>
<g mask="url(#mask0_782_2852)">
<path fill-rule="evenodd" clip-rule="evenodd" d="M11.739 3.5C7.196 3.5 3.5 7.195 3.5 11.738C3.5 16.281 7.196 19.977 11.739 19.977C16.281 19.977 19.977 16.281 19.977 11.738C19.977 7.195 16.281 3.5 11.739 3.5ZM11.739 21.477C6.369 21.477 2 17.108 2 11.738C2 6.368 6.369 2 11.739 2C17.109 2 21.477 6.368 21.477 11.738C21.477 17.108 17.109 21.477 11.739 21.477Z" fill="#222222"/>
</g>
<mask id="mask1_782_2852" style="mask-type:luminance" maskUnits="userSpaceOnUse" x="17" y="17" width="6" height="6">
<path fill-rule="evenodd" clip-rule="evenodd" d="M17.2397 17.7069H22.2638V22.7217H17.2397V17.7069Z" fill="white"/>
</mask>
<g mask="url(#mask1_782_2852)">
<path fill-rule="evenodd" clip-rule="evenodd" d="M21.514 22.7217C21.323 22.7217 21.131 22.6487 20.984 22.5027L17.46 18.9887C17.167 18.6957 17.166 18.2207 17.459 17.9277C17.751 17.6327 18.226 17.6347 18.52 17.9257L22.044 21.4407C22.337 21.7337 22.338 22.2077 22.045 22.5007C21.899 22.6487 21.706 22.7217 21.514 22.7217Z" fill="#222222"/>
</g>
</svg>
