<svg width="24" height="24" viewBox="0 0 24 24" fill="none" xmlns="http://www.w3.org/2000/svg">
<path d="M5.77292 21.114C6.12392 21.37 6.53392 21.5 6.94692 21.5C7.26092 21.5 7.57592 21.425 7.86792 21.273L11.5209 19.379C11.6639 19.305 11.8349 19.305 11.9779 19.379L15.6309 21.272C16.3099 21.626 17.1109 21.565 17.7259 21.114C18.3329 20.671 18.6299 19.938 18.5019 19.199L17.8049 15.188C17.7789 15.04 17.8289 14.889 17.9389 14.783L20.8949 11.943C21.4389 11.422 21.6349 10.652 21.4049 9.937C21.1729 9.214 20.5589 8.697 19.8019 8.589L15.7139 8C15.5569 7.978 15.4219 7.881 15.3529 7.742L13.5249 4.091C13.1879 3.418 12.5079 3 11.7499 3C10.9919 3 10.3119 3.418 9.97492 4.091L8.14792 7.743C8.07992 7.881 7.94392 7.978 7.78592 8L3.69792 8.589C2.94092 8.697 2.32692 9.214 2.09492 9.937C1.86492 10.652 2.05992 11.422 2.60392 11.943L5.55992 14.783C5.66992 14.889 5.72092 15.04 5.69492 15.189L4.99892 19.199C4.86992 19.937 5.16692 20.67 5.77292 21.114Z" fill="#FE5555"/>
</svg>
