<svg width="24" height="24" viewBox="0 0 24 24" fill="none" xmlns="http://www.w3.org/2000/svg">
<mask id="mask0_483_311" style="mask-type:luminance" maskUnits="userSpaceOnUse" x="2" y="8" width="20" height="15">
<path fill-rule="evenodd" clip-rule="evenodd" d="M2.00049 8.7941H22.0001V22.5381H2.00049V8.7941Z" fill="white"/>
</mask>
<g mask="url(#mask0_483_311)">
<path fill-rule="evenodd" clip-rule="evenodd" d="M17.5655 22.5381H6.43549C3.99049 22.5381 2.00049 20.5491 2.00049 18.1031V13.2281C2.00049 10.7831 3.99049 8.7941 6.43549 8.7941H7.36849C7.78249 8.7941 8.11849 9.1301 8.11849 9.5441C8.11849 9.9581 7.78249 10.2941 7.36849 10.2941H6.43549C4.81649 10.2941 3.50049 11.6101 3.50049 13.2281V18.1031C3.50049 19.7221 4.81649 21.0381 6.43549 21.0381H17.5655C19.1835 21.0381 20.5005 19.7221 20.5005 18.1031V13.2191C20.5005 11.6061 19.1885 10.2941 17.5765 10.2941H16.6335C16.2195 10.2941 15.8835 9.9581 15.8835 9.5441C15.8835 9.1301 16.2195 8.7941 16.6335 8.7941H17.5765C20.0155 8.7941 22.0005 10.7791 22.0005 13.2191V18.1031C22.0005 20.5491 20.0105 22.5381 17.5655 22.5381Z" fill="#222222"/>
</g>
<mask id="mask1_483_311" style="mask-type:luminance" maskUnits="userSpaceOnUse" x="11" y="2" width="2" height="14">
<path fill-rule="evenodd" clip-rule="evenodd" d="M11.25 2.00009H12.75V15.541H11.25V2.00009Z" fill="white"/>
</mask>
<g mask="url(#mask1_483_311)">
<path fill-rule="evenodd" clip-rule="evenodd" d="M12 15.541C11.586 15.541 11.25 15.205 11.25 14.791V2.75C11.25 2.336 11.586 2 12 2C12.414 2 12.75 2.336 12.75 2.75V14.791C12.75 15.205 12.414 15.541 12 15.541Z" fill="#222222"/>
</g>
<path fill-rule="evenodd" clip-rule="evenodd" d="M9.0852 6.42868C8.8942 6.42868 8.7022 6.35568 8.5562 6.20968C8.2632 5.91768 8.2612 5.44368 8.5542 5.14968L11.4692 2.22168C11.7502 1.93868 12.2502 1.93868 12.5312 2.22168L15.4472 5.14968C15.7392 5.44368 15.7382 5.91768 15.4452 6.20968C15.1512 6.50168 14.6772 6.50168 14.3852 6.20768L12.0002 3.81368L9.6162 6.20768C9.4702 6.35568 9.2772 6.42868 9.0852 6.42868Z" fill="#222222"/>
</svg>
