<svg width="20" height="21" viewBox="0 0 20 21" fill="none" xmlns="http://www.w3.org/2000/svg">
<path d="M1.29501 20.0035C0.194383 20.0035 -0.305903 19.203 0.194383 18.2358L9.09948 0.725782C9.59977 -0.241439 10.4002 -0.241439 10.9005 0.725782L19.8056 18.2358C20.3059 19.203 19.8056 20.0035 18.705 20.0035H1.29501Z" fill="#FFCE31"/>
<path d="M8.5992 7.19605L9.53307 13.3663C9.63313 13.9666 10.4002 13.9666 10.5003 13.3663L11.4008 7.19605C11.5676 4.79468 8.43244 4.79468 8.5992 7.19605Z" fill="#222222"/>
<path d="M9.99992 17.2685C10.7736 17.2685 11.4007 16.6414 11.4007 15.8677C11.4007 15.0941 10.7736 14.4669 9.99992 14.4669C9.22628 14.4669 8.59912 15.0941 8.59912 15.8677C8.59912 16.6414 9.22628 17.2685 9.99992 17.2685Z" fill="#222222"/>
</svg>
