<svg width="169" height="166" viewBox="0 0 169 166" fill="none" xmlns="http://www.w3.org/2000/svg">
<path fill-rule="evenodd" clip-rule="evenodd" d="M79.3463 1.36001C96.6954 -3.73962 115.389 6.36875 129.814 17.2926C144.064 28.0838 152.131 44.4049 158.349 61.1859C164.821 78.6517 173.663 98.1489 166.079 115.159C158.597 131.94 136.99 135.317 121.16 144.596C107.311 152.714 95.3888 165.897 79.3463 165.999C63.2671 166.102 47.8398 157.166 37.1444 145.132C27.5511 134.338 30.5783 117.926 24.8351 104.666C18.1108 89.1406 -4.67571 77.344 0.857984 61.3534C6.42916 45.2545 33.0892 52.0835 46.6077 41.7504C60.7147 30.9676 62.3221 6.36412 79.3463 1.36001Z" fill="#EA3E3E"/>
</svg>
