<svg width="279" height="30" viewBox="0 0 279 30" fill="none" xmlns="http://www.w3.org/2000/svg">
<g clip-path="url(#clip0_412_9641)">
<g clip-path="url(#clip1_412_9641)">
<path d="M84.4042 5.96931C85.3331 6.45575 86.0735 7.08119 86.6044 7.85256V5.51065H90.8022V22.0291C90.8022 23.551 90.4949 24.9061 89.8802 26.1013C89.2656 27.2966 88.3436 28.2417 87.1143 28.9436C85.8849 29.6455 84.3972 29.9929 82.651 29.9929C80.3111 29.9929 78.3903 29.4509 76.8955 28.3668C75.3938 27.2827 74.5486 25.8025 74.3531 23.9262H78.4881C78.7046 24.6767 79.1796 25.2744 79.899 25.7191C80.6184 26.1639 81.4985 26.3863 82.5323 26.3863C83.7406 26.3863 84.7255 26.0249 85.4798 25.3022C86.2342 24.5795 86.6114 23.4884 86.6114 22.0291V19.4856C86.0735 20.257 85.3331 20.8963 84.3972 21.4106C83.4542 21.9248 82.3786 22.182 81.1702 22.182C79.7802 22.182 78.509 21.8275 77.3635 21.1187C76.211 20.4099 75.303 19.4092 74.6394 18.1097C73.9759 16.8171 73.6406 15.33 73.6406 13.6552C73.6406 11.9804 73.9689 10.528 74.6394 9.24241C75.303 7.9568 76.204 6.97 77.3495 6.28202C78.4881 5.59405 79.7663 5.24658 81.1702 5.24658C82.3995 5.24658 83.4822 5.48981 84.4181 5.96931H84.4042ZM86.0107 11.1187C85.6125 10.396 85.0817 9.847 84.4042 9.45784C83.7266 9.07563 83.0072 8.88105 82.2319 8.88105C81.4566 8.88105 80.7441 9.06868 80.0876 9.44394C79.431 9.8192 78.9002 10.3682 78.495 11.084C78.0899 11.8067 77.8874 12.6615 77.8874 13.6482C77.8874 14.635 78.0899 15.4968 78.495 16.2403C78.9002 16.9839 79.438 17.5468 80.1015 17.9429C80.7651 18.339 81.4775 18.5336 82.2319 18.5336C82.9863 18.5336 83.7266 18.339 84.4042 17.9568C85.0817 17.5746 85.6125 17.0186 86.0107 16.2959C86.4088 15.5732 86.6044 14.7115 86.6044 13.7038C86.6044 12.6962 86.4018 11.8345 86.0107 11.1118V11.1187Z" fill="black"/>
<path d="M54.069 14.9548H42.8584C42.7257 14.9548 42.621 15.073 42.6349 15.205C42.7676 16.2683 43.1239 16.852 43.8084 17.4774C44.5418 18.1515 46.0994 18.5546 47.168 18.5963C49.92 18.7144 51.9037 17.8874 53.0911 17.1717C53.4055 16.984 53.7826 17.3176 53.6359 17.6512C53.1191 18.8395 52.3088 19.8402 51.2192 20.6602C49.8712 21.6748 48.2158 22.1821 46.2461 22.1821C44.6605 22.1821 43.2356 21.8346 41.9784 21.1327C40.7211 20.4309 39.7362 19.4371 39.0308 18.1585C38.3253 16.8728 37.9761 15.3926 37.9761 13.7179C37.9761 12.0431 38.3253 10.5282 39.0168 9.24949C39.7083 7.96388 40.6862 6.97708 41.9364 6.2891C43.1867 5.60113 44.6256 5.25366 46.253 5.25366C47.8805 5.25366 49.2216 5.58723 50.4649 6.26131C51.7081 6.93539 52.6651 7.88744 53.3496 9.11746C54.0341 10.3544 54.3763 11.7651 54.3763 13.3635C54.3763 13.8777 54.3484 14.3503 54.2855 14.7811C54.2716 14.8923 54.1738 14.9687 54.069 14.9687V14.9548ZM49.8292 12.1682C49.955 12.1682 50.0597 12.057 50.0528 11.9319C49.9829 10.9729 49.5987 10.2015 48.9003 9.60391C48.1459 8.96457 47.2239 8.63796 46.1343 8.63796C45.1006 8.63796 44.2344 8.95067 43.529 9.56916C42.8794 10.139 42.4603 10.9173 42.2787 11.8972C42.2508 12.0292 42.3625 12.1543 42.4952 12.1543H49.8223L49.8292 12.1682Z" fill="black"/>
<path d="M134.995 14.9548H123.784C123.652 14.9548 123.547 15.073 123.561 15.205C123.693 16.2683 124.05 16.852 124.734 17.4774C125.468 18.1515 127.025 18.5546 128.094 18.5963C130.846 18.7144 132.83 17.8874 134.017 17.1717C134.331 16.984 134.708 17.3176 134.562 17.6512C134.045 18.8395 133.235 19.8402 132.145 20.6602C130.797 21.6748 129.142 22.1821 127.172 22.1821C125.586 22.1821 124.161 21.8346 122.904 21.1327C121.647 20.4309 120.662 19.4371 119.957 18.1585C119.251 16.8728 118.902 15.3926 118.902 13.7179C118.902 12.0431 119.251 10.5282 119.943 9.24949C120.634 7.96388 121.612 6.97708 122.862 6.2891C124.112 5.60113 125.551 5.25366 127.179 5.25366C128.806 5.25366 130.147 5.58723 131.391 6.26131C132.634 6.93539 133.591 7.88744 134.275 9.11746C134.96 10.3544 135.302 11.7651 135.302 13.3635C135.302 13.8777 135.274 14.3503 135.211 14.7811C135.197 14.8923 135.1 14.9687 134.995 14.9687V14.9548ZM130.755 12.1682C130.881 12.1682 130.986 12.057 130.979 11.9319C130.909 10.9729 130.525 10.2015 129.826 9.60391C129.072 8.96457 128.15 8.63796 127.06 8.63796C126.026 8.63796 125.16 8.95067 124.455 9.56916C123.805 10.139 123.386 10.9173 123.204 11.8972C123.177 12.0292 123.288 12.1543 123.421 12.1543H130.748L130.755 12.1682Z" fill="black"/>
<path d="M103.668 5.96931C104.597 6.45575 105.337 7.08119 105.868 7.85256V5.51065H110.066V22.0291C110.066 23.551 109.759 24.9061 109.144 26.1013C108.529 27.2966 107.607 28.2417 106.378 28.9436C105.149 29.6455 103.661 29.9929 101.915 29.9929C99.5749 29.9929 97.6541 29.4509 96.1524 28.3668C94.6506 27.2827 93.8055 25.8025 93.6099 23.9262H97.7449C97.9614 24.6767 98.4364 25.2744 99.1558 25.7191C99.8753 26.1639 100.755 26.3863 101.789 26.3863C102.997 26.3863 103.982 26.0249 104.737 25.3022C105.491 24.5795 105.868 23.4884 105.868 22.0291V19.4856C105.33 20.257 104.59 20.8963 103.654 21.4106C102.711 21.9248 101.635 22.182 100.427 22.182C99.0371 22.182 97.7659 21.8275 96.6203 21.1187C95.4679 20.4099 94.5598 19.4092 93.8963 18.1097C93.2327 16.8171 92.8975 15.33 92.8975 13.6552C92.8975 11.9804 93.2327 10.528 93.8963 9.24241C94.5598 7.9568 95.4609 6.97 96.6064 6.28202C97.7449 5.59405 99.0231 5.24658 100.427 5.24658C101.656 5.24658 102.739 5.48981 103.675 5.96931H103.668ZM105.274 11.1187C104.876 10.396 104.339 9.847 103.668 9.45784C102.99 9.07563 102.271 8.88105 101.496 8.88105C100.72 8.88105 100.008 9.06868 99.3514 9.44394C98.6948 9.8192 98.164 10.3682 97.7589 11.084C97.3538 11.8067 97.1512 12.6615 97.1512 13.6482C97.1512 14.635 97.3538 15.4968 97.7589 16.2403C98.164 16.9839 98.7018 17.5468 99.3654 17.9429C100.029 18.339 100.741 18.5336 101.496 18.5336C102.25 18.5336 102.99 18.339 103.668 17.9568C104.339 17.5746 104.876 17.0186 105.274 16.2959C105.673 15.5732 105.868 14.7115 105.868 13.7038C105.868 12.6962 105.673 11.8345 105.274 11.1118V11.1187Z" fill="black"/>
<path d="M17.1756 18.1584V0H12.9498V7.79013C12.1954 6.77554 11.0918 6.03197 9.65296 5.54552C9.24785 5.41348 8.82876 5.32314 8.40967 5.28145C6.66348 5.12161 5.09889 5.44823 3.72289 6.27519C2.5704 6.96317 1.66238 7.95692 0.998823 9.23558C0.335269 10.5212 0 11.9875 0 13.6484C0 15.3092 0.335269 16.8103 0.998823 18.1028C1.66238 19.3954 2.5704 20.3961 3.72289 21.1119C4.87538 21.8207 6.14661 22.1751 7.52959 22.1751C8.75891 22.1751 9.84155 21.9249 10.7775 21.4385C11.7065 20.9451 12.4329 20.2919 12.9498 19.4858C12.9498 20.827 14.0464 21.7999 15.3875 21.9111C16.7285 22.0222 18.7611 21.7095 19.4386 19.9583C19.5225 19.7498 19.3688 19.5136 19.1383 19.5136H18.5376C17.7832 19.5136 17.1686 18.902 17.1686 18.1515L17.1756 18.1584ZM12.384 16.303C11.9859 17.0257 11.4481 17.5747 10.7775 17.9639C10.1 18.3461 9.38056 18.5407 8.60525 18.5407C7.82994 18.5407 7.14543 18.3461 6.47489 17.95C5.81134 17.5539 5.27351 16.991 4.86839 16.2474C4.46327 15.5108 4.26072 14.6421 4.26072 13.6553C4.26072 12.6685 4.46327 11.8138 4.86839 11.091C5.27351 10.3683 5.80435 9.81932 6.46092 9.45101C7.11749 9.0827 7.82994 8.88812 8.60525 8.88812C9.38056 8.88812 10.1 9.0827 10.7775 9.46491C11.4481 9.84712 11.9859 10.4031 12.384 11.1258C12.7821 11.8485 12.9777 12.7102 12.9777 13.7179C12.9777 14.7255 12.7821 15.5872 12.384 16.3099V16.303Z" fill="black"/>
<path d="M36.1604 18.1585V5.51084H31.9346V7.7902C31.1803 6.77561 30.0767 6.03203 28.6378 5.54559C28.2327 5.41355 27.8136 5.32321 27.3945 5.28151C25.6483 5.12168 24.0838 5.4483 22.7077 6.27526C21.5553 6.96324 20.6472 7.95698 19.9837 9.23565C19.3201 10.5213 18.9849 11.9876 18.9849 13.6484C18.9849 15.3093 19.3201 16.8104 19.9837 18.1029C20.6472 19.3955 21.5553 20.3962 22.7077 21.112C23.8602 21.8208 25.1315 22.1752 26.5145 22.1752C27.7438 22.1752 28.8264 21.925 29.7624 21.4386C30.6914 20.9452 31.4178 20.2919 31.9346 19.4858C31.9346 20.827 33.0313 21.7999 34.3723 21.9111C35.7134 22.0223 37.746 21.7096 38.4235 19.9584C38.5073 19.7499 38.3537 19.5136 38.1232 19.5136H37.5225C36.7681 19.5136 36.1534 18.9021 36.1534 18.1516L36.1604 18.1585ZM31.3689 16.3031C30.9707 17.0258 30.4329 17.5748 29.7624 17.9639C29.0849 18.3461 28.3654 18.5407 27.5901 18.5407C26.8148 18.5407 26.1303 18.3461 25.4598 17.95C24.7962 17.5539 24.2584 16.991 23.8533 16.2475C23.4481 15.5108 23.2456 14.6422 23.2456 13.6554C23.2456 12.6686 23.4481 11.8138 23.8533 11.0911C24.2584 10.3684 24.7892 9.81939 25.4458 9.45108C26.1024 9.08277 26.8148 8.88819 27.5901 8.88819C28.3654 8.88819 29.0849 9.08276 29.7624 9.46497C30.4329 9.84718 30.9707 10.4031 31.3689 11.1259C31.767 11.8486 31.9626 12.7103 31.9626 13.7179C31.9626 14.7256 31.767 15.5873 31.3689 16.31V16.3031Z" fill="black"/>
<path d="M73.0886 19.6387C72.453 19.6387 71.9361 19.1244 71.9361 18.492V12.2863C71.9361 10.0765 71.3284 8.35305 70.1201 7.11608C68.9117 5.88606 67.3192 5.26758 65.3565 5.26758C64.3227 5.26758 63.3798 5.46911 62.5136 5.87216C61.6475 6.27522 60.9421 6.83116 60.3833 7.54694V5.50385H56.2134V21.9111H60.3833V12.8492C60.3833 11.5497 60.7116 10.5421 61.3821 9.84715C62.0526 9.15222 62.9537 8.79781 64.1062 8.79781C65.2587 8.79781 66.1318 9.14527 66.7813 9.84715C67.4309 10.549 67.7662 11.5497 67.7662 12.8492V19.6873C67.7662 19.868 67.7802 20.0209 67.8011 20.1668C67.8011 20.1668 67.8011 20.1668 67.8011 20.1738C67.8221 20.3058 67.85 20.4239 67.8919 20.5282C68.1713 21.3899 68.8907 21.9389 69.9245 22.0292C71.3354 22.1543 73.4309 21.8068 74.0385 19.9097C74.0804 19.7777 73.9757 19.6387 73.829 19.6387H73.0816H73.0886Z" fill="black"/>
<path d="M117.973 19.6386C117.338 19.6386 116.821 19.1244 116.821 18.492V0H112.658V19.6873C112.658 21.0285 113.475 21.9111 114.823 22.0292C116.199 22.1473 118.225 21.8207 118.888 20.0417C118.958 19.8471 118.825 19.6386 118.616 19.6386H117.98H117.973Z" fill="black"/>
<path d="M228.102 5.96931C229.031 6.45575 229.771 7.08119 230.302 7.85256V5.51065H234.5V22.0291C234.5 23.551 234.193 24.9061 233.578 26.1013C232.963 27.2966 232.041 28.2417 230.812 28.9436C229.583 29.6455 228.095 29.9929 226.349 29.9929C224.009 29.9929 222.088 29.4509 220.593 28.3668C219.092 27.2827 218.246 25.8025 218.051 23.9262H222.186C222.402 24.6767 222.877 25.2744 223.597 25.7191C224.316 26.1639 225.196 26.3863 226.23 26.3863C227.438 26.3863 228.423 26.0249 229.178 25.3022C229.932 24.5795 230.309 23.4884 230.309 22.0291V19.4856C229.771 20.257 229.031 20.8963 228.095 21.4106C227.152 21.9248 226.076 22.182 224.868 22.182C223.478 22.182 222.207 21.8275 221.061 21.1187C219.909 20.4099 219.001 19.4092 218.337 18.1097C217.674 16.8171 217.338 15.33 217.338 13.6552C217.338 11.9804 217.667 10.528 218.337 9.24241C219.001 7.9568 219.902 6.97 221.047 6.28202C222.186 5.59405 223.464 5.24658 224.868 5.24658C226.097 5.24658 227.18 5.48981 228.116 5.96931H228.102ZM229.708 11.1187C229.31 10.396 228.779 9.847 228.102 9.45784C227.424 9.07563 226.705 8.88105 225.93 8.88105C225.154 8.88105 224.442 9.06868 223.785 9.44394C223.129 9.8192 222.598 10.3682 222.193 11.084C221.788 11.8067 221.585 12.6615 221.585 13.6482C221.585 14.635 221.788 15.4968 222.193 16.2403C222.598 16.9839 223.136 17.5468 223.799 17.9429C224.463 18.339 225.175 18.5336 225.93 18.5336C226.684 18.5336 227.424 18.339 228.102 17.9568C228.779 17.5746 229.31 17.0186 229.708 16.2959C230.107 15.5732 230.302 14.7115 230.302 13.7038C230.302 12.6962 230.1 11.8345 229.708 11.1118V11.1187Z" fill="black"/>
<path d="M197.76 14.9548H186.549C186.417 14.9548 186.312 15.073 186.326 15.205C186.459 16.2683 186.815 16.852 187.499 17.4774C188.233 18.1515 189.79 18.5546 190.859 18.5963C193.611 18.7144 195.595 17.8874 196.782 17.1717C197.096 16.984 197.474 17.3176 197.327 17.6512C196.81 18.8395 196 19.8402 194.91 20.6602C193.562 21.6748 191.907 22.1821 189.937 22.1821C188.351 22.1821 186.927 21.8346 185.669 21.1327C184.412 20.4309 183.427 19.4371 182.722 18.1585C182.016 16.8728 181.667 15.3926 181.667 13.7179C181.667 12.0431 182.016 10.5282 182.708 9.24949C183.399 7.96388 184.377 6.97708 185.627 6.2891C186.878 5.60113 188.317 5.25366 189.944 5.25366C191.571 5.25366 192.912 5.58723 194.156 6.26131C195.399 6.93539 196.356 7.88744 197.04 9.11746C197.725 10.3544 198.067 11.7651 198.067 13.3635C198.067 13.8777 198.039 14.3503 197.976 14.7811C197.962 14.8923 197.865 14.9687 197.76 14.9687V14.9548ZM193.52 12.1682C193.646 12.1682 193.751 12.057 193.744 11.9319C193.674 10.9729 193.29 10.2015 192.591 9.60391C191.837 8.96457 190.915 8.63796 189.825 8.63796C188.791 8.63796 187.925 8.95067 187.22 9.56916C186.57 10.139 186.151 10.9173 185.97 11.8972C185.942 12.0292 186.053 12.1543 186.186 12.1543H193.513L193.52 12.1682Z" fill="black"/>
<path d="M278.686 14.9548H267.475C267.342 14.9548 267.238 15.073 267.252 15.205C267.384 16.2683 267.741 16.852 268.425 17.4774C269.158 18.1515 270.716 18.5546 271.785 18.5963C274.537 18.7144 276.52 17.8874 277.708 17.1717C278.022 16.984 278.399 17.3176 278.253 17.6512C277.736 18.8395 276.926 19.8402 275.836 20.6602C274.488 21.6748 272.832 22.1821 270.863 22.1821C269.277 22.1821 267.852 21.8346 266.595 21.1327C265.338 20.4309 264.353 19.4371 263.647 18.1585C262.942 16.8728 262.593 15.3926 262.593 13.7179C262.593 12.0431 262.942 10.5282 263.633 9.24949C264.325 7.96388 265.303 6.97708 266.553 6.2891C267.803 5.60113 269.242 5.25366 270.87 5.25366C272.497 5.25366 273.838 5.58723 275.082 6.26131C276.325 6.93539 277.282 7.88744 277.966 9.11746C278.651 10.3544 278.993 11.7651 278.993 13.3635C278.993 13.8777 278.965 14.3503 278.902 14.7811C278.888 14.8923 278.79 14.9687 278.686 14.9687V14.9548ZM274.446 12.1682C274.572 12.1682 274.676 12.057 274.669 11.9319C274.6 10.9729 274.215 10.2015 273.517 9.60391C272.763 8.96457 271.841 8.63796 270.751 8.63796C269.717 8.63796 268.851 8.95067 268.146 9.56916C267.496 10.139 267.077 10.9173 266.895 11.8972C266.867 12.0292 266.979 12.1543 267.112 12.1543H274.439L274.446 12.1682Z" fill="black"/>
<path d="M247.366 5.96931C248.295 6.45575 249.036 7.08119 249.566 7.85256V5.51065H253.764V22.0291C253.764 23.551 253.457 24.9061 252.842 26.1013C252.228 27.2966 251.306 28.2417 250.076 28.9436C248.847 29.6455 247.359 29.9929 245.613 29.9929C243.273 29.9929 241.352 29.4509 239.851 28.3668C238.349 27.2827 237.504 25.8025 237.308 23.9262H241.443C241.66 24.6767 242.135 25.2744 242.854 25.7191C243.573 26.1639 244.454 26.3863 245.487 26.3863C246.696 26.3863 247.681 26.0249 248.435 25.3022C249.189 24.5795 249.566 23.4884 249.566 22.0291V19.4856C249.029 20.257 248.288 20.8963 247.352 21.4106C246.409 21.9248 245.334 22.182 244.125 22.182C242.735 22.182 241.464 21.8275 240.319 21.1187C239.166 20.4099 238.258 19.4092 237.595 18.1097C236.931 16.8171 236.596 15.33 236.596 13.6552C236.596 11.9804 236.931 10.528 237.595 9.24241C238.258 7.9568 239.159 6.97 240.305 6.28202C241.443 5.59405 242.721 5.24658 244.125 5.24658C245.355 5.24658 246.437 5.48981 247.373 5.96931H247.366ZM248.973 11.1187C248.575 10.396 248.037 9.847 247.366 9.45784C246.689 9.07563 245.969 8.88105 245.194 8.88105C244.419 8.88105 243.706 9.06868 243.05 9.44394C242.393 9.8192 241.862 10.3682 241.457 11.084C241.052 11.8067 240.849 12.6615 240.849 13.6482C240.849 14.635 241.052 15.4968 241.457 16.2403C241.862 16.9839 242.4 17.5468 243.064 17.9429C243.727 18.339 244.44 18.5336 245.194 18.5336C245.948 18.5336 246.689 18.339 247.366 17.9568C248.037 17.5746 248.575 17.0186 248.973 16.2959C249.371 15.5732 249.566 14.7115 249.566 13.7038C249.566 12.6962 249.371 11.8345 248.973 11.1118V11.1187Z" fill="black"/>
<path d="M160.866 18.1584V0H156.641V7.79013C155.886 6.77554 154.783 6.03197 153.344 5.54552C152.939 5.41348 152.52 5.32314 152.101 5.28145C150.354 5.12161 148.79 5.44823 147.414 6.27519C146.261 6.96317 145.353 7.95692 144.69 9.23558C144.026 10.5212 143.691 11.9875 143.691 13.6484C143.691 15.3092 144.026 16.8103 144.69 18.1028C145.353 19.3954 146.261 20.3961 147.414 21.1119C148.566 21.8207 149.838 22.1751 151.221 22.1751C152.45 22.1751 153.532 21.9249 154.468 21.4385C155.397 20.9451 156.124 20.2919 156.641 19.4858C156.641 20.827 157.737 21.7999 159.078 21.9111C160.419 22.0222 162.452 21.7095 163.13 19.9583C163.213 19.7498 163.06 19.5136 162.829 19.5136H162.229C161.474 19.5136 160.86 18.902 160.86 18.1515L160.866 18.1584ZM156.075 16.303C155.677 17.0257 155.139 17.5747 154.468 17.9639C153.791 18.3461 153.071 18.5407 152.296 18.5407C151.521 18.5407 150.836 18.3461 150.166 17.95C149.502 17.5539 148.964 16.991 148.559 16.2474C148.154 15.5108 147.952 14.6421 147.952 13.6553C147.952 12.6685 148.154 11.8138 148.559 11.091C148.964 10.3683 149.495 9.81932 150.152 9.45101C150.808 9.0827 151.521 8.88812 152.296 8.88812C153.071 8.88812 153.791 9.0827 154.468 9.46491C155.139 9.84712 155.677 10.4031 156.075 11.1258C156.473 11.8485 156.669 12.7102 156.669 13.7179C156.669 14.7255 156.473 15.5872 156.075 16.3099V16.303Z" fill="black"/>
<path d="M179.858 18.1585V5.51084H175.632V7.7902C174.878 6.77561 173.774 6.03203 172.336 5.54559C171.93 5.41355 171.511 5.32321 171.092 5.28151C169.346 5.12168 167.782 5.4483 166.406 6.27526C165.253 6.96324 164.345 7.95698 163.681 9.23565C163.018 10.5213 162.683 11.9876 162.683 13.6484C162.683 15.3093 163.018 16.8104 163.681 18.1029C164.345 19.3955 165.253 20.3962 166.406 21.112C167.558 21.8208 168.829 22.1752 170.212 22.1752C171.442 22.1752 172.524 21.925 173.46 21.4386C174.389 20.9452 175.116 20.2919 175.632 19.4858C175.632 20.827 176.729 21.7999 178.07 21.9111C179.411 22.0223 181.444 21.7096 182.121 19.9584C182.205 19.7499 182.051 19.5136 181.821 19.5136H181.22C180.466 19.5136 179.851 18.9021 179.851 18.1516L179.858 18.1585ZM175.067 16.3031C174.668 17.0258 174.131 17.5748 173.46 17.9639C172.783 18.3461 172.063 18.5407 171.288 18.5407C170.513 18.5407 169.828 18.3461 169.157 17.95C168.494 17.5539 167.956 16.991 167.551 16.2475C167.146 15.5108 166.943 14.6422 166.943 13.6554C166.943 12.6686 167.146 11.8138 167.551 11.0911C167.956 10.3684 168.487 9.81939 169.144 9.45108C169.8 9.08277 170.513 8.88819 171.288 8.88819C172.063 8.88819 172.783 9.08276 173.46 9.46497C174.131 9.84718 174.668 10.4031 175.067 11.1259C175.465 11.8486 175.66 12.7103 175.66 13.7179C175.66 14.7256 175.465 15.5873 175.067 16.31V16.3031Z" fill="black"/>
<path d="M216.78 19.6387C216.144 19.6387 215.627 19.1244 215.627 18.492V12.2863C215.627 10.0765 215.019 8.35305 213.811 7.11608C212.603 5.88606 211.01 5.26758 209.047 5.26758C208.014 5.26758 207.071 5.46911 206.205 5.87216C205.338 6.27522 204.633 6.83116 204.074 7.54694V5.50385H199.904V21.9111H204.074V12.8492C204.074 11.5497 204.402 10.5421 205.073 9.84715C205.744 9.15222 206.645 8.79781 207.797 8.79781C208.95 8.79781 209.823 9.14527 210.472 9.84715C211.122 10.549 211.457 11.5497 211.457 12.8492V19.6873C211.457 19.868 211.471 20.0209 211.492 20.1668C211.492 20.1668 211.492 20.1668 211.492 20.1738C211.513 20.3058 211.541 20.4239 211.583 20.5282C211.862 21.3899 212.582 21.9389 213.615 22.0292C215.026 22.1543 217.122 21.8068 217.729 19.9097C217.771 19.7777 217.667 19.6387 217.52 19.6387H216.773H216.78Z" fill="black"/>
<path d="M261.671 19.6386C261.035 19.6386 260.518 19.1244 260.518 18.492V0H256.355V19.6873C256.355 21.0285 257.173 21.9111 258.521 22.0292C259.897 22.1473 261.922 21.8207 262.586 20.0417C262.656 19.8471 262.523 19.6386 262.313 19.6386H261.678H261.671Z" fill="black"/>
</g>
</g>
<defs>
<clipPath id="clip0_412_9641">
<rect width="279" height="30" fill="white"/>
</clipPath>
<clipPath id="clip1_412_9641">
<rect width="279" height="30" fill="white"/>
</clipPath>
</defs>
</svg>
